<svg width="322" height="240" viewBox="0 0 322 240" fill="none" xmlns="http://www.w3.org/2000/svg">
<path d="M309.372 31.3164H240.443C194.608 -4.59286 128.093 -1.46537 85.8645 40.7073C68.7143 57.8348 58.0146 78.9621 53.7592 101.081L40.5593 101.283C34.2834 101.357 29.2556 106.5 29.3293 112.768C29.4029 119.035 34.5507 124.056 40.8287 123.983L45.0567 123.888L52.8521 123.714C59.1279 123.64 64.2757 128.659 64.3515 134.929C64.4252 141.196 59.3973 146.337 53.1215 146.413L45.324 146.52L13.6207 146.958C7.34486 147.031 2.31703 152.172 2.39069 158.442C2.46435 164.709 7.61214 169.731 13.8901 169.657L45.5955 169.243L76.1203 168.844C82.3961 168.77 87.5439 173.789 87.6197 180.059C87.6933 186.326 82.6676 191.467 76.3897 191.543L56.554 191.97C51.6357 192.029 47.4875 195.198 45.9554 199.58C45.5324 200.791 45.3093 202.096 45.324 203.452C45.3977 209.719 50.5455 214.741 56.8234 214.667L95.1793 214.045C141.049 251.037 208.422 248.25 251.05 205.68C268.327 188.426 279.056 167.114 283.246 144.818H305.163C311.422 144.818 316.934 139.782 316.964 133.535C316.934 127.289 311.422 122.118 305.163 122.118H291.711H281.996C275.737 122.118 270.276 117.083 270.246 110.836C270.276 104.589 275.737 99.419 281.996 99.419H291.694C291.7 99.419 291.705 99.419 291.711 99.419C297.964 99.4106 303.046 94.3767 303.073 88.1386C303.046 81.8984 297.961 76.73 291.711 76.7216C291.705 76.7216 291.7 76.7216 291.694 76.7216H259.267C253.008 76.7216 247.546 71.6857 247.517 65.4392C247.546 59.1926 253.008 54.0222 259.267 54.0222H291.711H309.372C315.631 54.0222 320.725 48.9863 320.752 42.7397C320.725 36.4889 315.631 31.3164 309.372 31.3164Z" fill="#EDF1F3"/>
<path d="M320.754 42.784V42.6831C320.754 42.6999 320.752 42.7167 320.752 42.7335C320.752 42.7504 320.754 42.7672 320.754 42.784Z" fill="#EDF1F3"/>
<path d="M316.966 133.582V133.481C316.966 133.498 316.964 133.515 316.964 133.531C316.964 133.548 316.966 133.565 316.966 133.582Z" fill="#EDF1F3"/>
<path d="M303.076 88.1829V88.082C303.076 88.0988 303.073 88.1157 303.073 88.1325C303.073 88.1493 303.076 88.1661 303.076 88.1829Z" fill="#EDF1F3"/>
<path d="M265.176 123.375H255.075C254.378 123.375 253.812 123.941 253.812 124.637C253.812 125.332 254.378 125.898 255.075 125.898H265.176C265.873 125.898 266.439 125.332 266.439 124.637C266.439 123.941 265.873 123.375 265.176 123.375Z" fill="black"/>
<path d="M300.533 123.375H272.753C272.056 123.375 271.49 123.941 271.49 124.637C271.49 125.332 272.056 125.898 272.753 125.898H300.533C301.23 125.898 301.796 125.332 301.796 124.637C301.796 123.941 301.23 123.375 300.533 123.375Z" fill="black"/>
<path d="M286.643 115.809H266.439C265.743 115.809 265.177 116.374 265.177 117.07C265.177 117.765 265.743 118.331 266.439 118.331H286.643C287.34 118.331 287.906 117.765 287.906 117.07C287.906 116.374 287.34 115.809 286.643 115.809Z" fill="black"/>
<path d="M5.05098 138.508H1.26274C0.566131 138.508 0 139.074 0 139.769C0 140.465 0.566131 141.031 1.26274 141.031H5.05098C5.74759 141.031 6.31372 140.465 6.31372 139.769C6.31372 139.074 5.74759 138.508 5.05098 138.508Z" fill="black"/>
<path d="M23.9921 138.508H20.2039C19.5073 138.508 18.9412 139.074 18.9412 139.769C18.9412 140.465 19.5073 141.031 20.2039 141.031H23.9921C24.6888 141.031 25.2549 140.465 25.2549 139.769C25.2549 139.074 24.6888 138.508 23.9921 138.508Z" fill="black"/>
<path d="M5.4846 130.77C4.99213 130.278 4.19239 130.278 3.69992 130.77C3.20745 131.262 3.20745 132.06 3.69992 132.552L6.37904 135.228C6.62528 135.474 6.94938 135.598 7.27138 135.598C7.59549 135.598 7.91749 135.474 8.16372 135.228C8.65619 134.736 8.65619 133.937 8.16372 133.445L5.4846 130.77Z" fill="black"/>
<path d="M18.8782 144.145C18.3857 143.653 17.5859 143.653 17.0935 144.145C16.601 144.637 16.601 145.436 17.0935 145.928L19.7726 148.603C20.0188 148.849 20.3429 148.973 20.6649 148.973C20.989 148.973 21.311 148.849 21.5573 148.603C22.0497 148.111 22.0497 147.313 21.5573 146.821L18.8782 144.145Z" fill="black"/>
<path d="M12.6443 127.077C11.9477 127.077 11.3816 127.642 11.3816 128.338V132.121C11.3816 132.817 11.9477 133.382 12.6443 133.382C13.341 133.382 13.9071 132.817 13.9071 132.121V128.338C13.9071 127.64 13.341 127.077 12.6443 127.077Z" fill="black"/>
<path d="M12.6443 145.993C11.9477 145.993 11.3816 146.558 11.3816 147.254V151.037C11.3816 151.733 11.9477 152.298 12.6443 152.298C13.341 152.298 13.9071 151.733 13.9071 151.037V147.254C13.9071 146.556 13.341 145.993 12.6443 145.993Z" fill="black"/>
<path d="M19.7704 130.77L17.0913 133.445C16.5988 133.937 16.5988 134.736 17.0913 135.228C17.3375 135.474 17.6616 135.598 17.9836 135.598C18.3077 135.598 18.6297 135.474 18.876 135.228L21.5551 132.552C22.0476 132.06 22.0476 131.262 21.5551 130.77C21.0626 130.278 20.2629 130.278 19.7704 130.77Z" fill="black"/>
<path d="M6.37685 144.145L3.69772 146.821C3.20525 147.313 3.20525 148.111 3.69772 148.603C3.94396 148.849 4.26806 148.973 4.59006 148.973C4.91206 148.973 5.23617 148.849 5.4824 148.603L8.16152 145.928C8.654 145.436 8.654 144.637 8.16152 144.145C7.66905 143.653 6.87142 143.653 6.37685 144.145Z" fill="black"/>
<path d="M276.541 152.38H272.753C272.056 152.38 271.49 152.945 271.49 153.641C271.49 154.337 272.056 154.902 272.753 154.902H276.541C277.238 154.902 277.804 154.337 277.804 153.641C277.804 152.945 277.238 152.38 276.541 152.38Z" fill="black"/>
<path d="M295.482 152.38H291.694C290.998 152.38 290.431 152.945 290.431 153.641C290.431 154.337 290.998 154.902 291.694 154.902H295.482C296.179 154.902 296.745 154.337 296.745 153.641C296.745 152.945 296.179 152.38 295.482 152.38Z" fill="black"/>
<path d="M276.975 144.641C276.482 144.15 275.683 144.15 275.19 144.641C274.698 145.133 274.698 145.932 275.19 146.424L277.869 149.099C278.116 149.345 278.44 149.469 278.762 149.469C279.084 149.469 279.408 149.345 279.654 149.099C280.146 148.607 280.146 147.809 279.654 147.317L276.975 144.641Z" fill="black"/>
<path d="M290.368 158.017C289.876 157.525 289.076 157.525 288.584 158.017C288.091 158.509 288.091 159.307 288.584 159.799L291.263 162.475C291.509 162.721 291.833 162.845 292.155 162.845C292.477 162.845 292.801 162.721 293.048 162.475C293.54 161.983 293.54 161.184 293.048 160.692L290.368 158.017Z" fill="black"/>
<path d="M284.135 140.948C283.438 140.948 282.872 141.514 282.872 142.209V145.993C282.872 146.688 283.438 147.254 284.135 147.254C284.831 147.254 285.397 146.688 285.397 145.993V142.209C285.397 141.512 284.831 140.948 284.135 140.948Z" fill="black"/>
<path d="M284.135 159.864C283.438 159.864 282.872 160.43 282.872 161.125V164.909C282.872 165.604 283.438 166.17 284.135 166.17C284.831 166.17 285.397 165.604 285.397 164.909V161.125C285.397 160.428 284.831 159.864 284.135 159.864Z" fill="black"/>
<path d="M291.261 144.641L288.582 147.317C288.089 147.809 288.089 148.607 288.582 149.099C288.828 149.345 289.152 149.469 289.474 149.469C289.796 149.469 290.12 149.345 290.366 149.099L293.045 146.424C293.538 145.932 293.538 145.133 293.045 144.641C292.553 144.15 291.753 144.15 291.261 144.641Z" fill="black"/>
<path d="M277.867 158.017L275.188 160.692C274.695 161.184 274.695 161.983 275.188 162.475C275.434 162.721 275.758 162.845 276.08 162.845C276.402 162.845 276.726 162.721 276.973 162.475L279.652 159.799C280.144 159.307 280.144 158.509 279.652 158.017C279.159 157.525 278.362 157.525 277.867 158.017Z" fill="black"/>
<path d="M194.105 8.86287L191.281 7.35588C190.003 6.51516 188.959 5.57986 188.26 4.30406L186.716 1.44772C186.27 0.636421 184.942 0.640625 184.5 1.44772L182.955 4.26833C182.256 5.54413 181.212 6.58872 179.935 7.28442L177.108 8.82714C176.704 9.04783 176.452 9.47239 176.452 9.93269C176.452 10.393 176.704 10.8175 177.108 11.0382L179.933 12.581C181.21 13.2788 182.256 14.3212 182.953 15.597L184.497 18.4177C184.718 18.8212 185.144 19.0734 185.604 19.0734C186.065 19.0734 186.49 18.8233 186.711 18.4198L188.256 15.5991C188.955 14.3233 189.999 13.283 191.276 12.5852L194.101 11.0466C194.505 10.826 194.757 10.4098 194.757 9.9495C194.761 9.49131 194.511 9.08566 194.105 8.86287ZM190.068 10.3699C188.366 11.2989 186.975 12.6903 186.044 14.3885L185.607 15.1872L185.171 14.3885C184.241 12.6903 182.85 11.2989 181.147 10.3699L180.347 9.93269L181.147 9.49551C182.85 8.56652 184.241 7.17723 185.171 5.47687L185.607 4.67818L186.044 5.47687C186.975 7.17723 188.368 8.56652 190.068 9.49551L190.868 9.93269L190.068 10.3699Z" fill="black"/>
<path d="M266.624 198.691L263.8 197.149C262.523 196.451 261.479 195.408 260.78 194.133L259.235 191.312C258.793 190.503 257.461 190.503 257.019 191.312L255.474 194.133C254.776 195.408 253.732 196.451 252.454 197.149L249.63 198.691C249.226 198.912 248.973 199.337 248.973 199.797C248.973 200.257 249.226 200.682 249.63 200.903L252.454 202.445C253.732 203.143 254.776 204.186 255.474 205.461L257.019 208.282C257.24 208.685 257.665 208.938 258.126 208.938C258.587 208.938 259.012 208.685 259.233 208.282L260.778 205.461C261.477 204.186 262.52 203.143 263.798 202.445L266.622 200.903C267.026 200.682 267.279 200.257 267.279 199.797C267.281 199.337 267.028 198.912 266.624 198.691ZM262.588 200.234C260.885 201.163 259.494 202.555 258.564 204.253L258.126 205.051L257.691 204.253C256.76 202.552 255.367 201.163 253.667 200.234L252.867 199.797L253.667 199.362C255.369 198.433 256.76 197.041 257.691 195.343L258.126 194.547L258.564 195.345C259.494 197.046 260.887 198.435 262.588 199.364L263.388 199.799L262.588 200.234Z" fill="black"/>
<path d="M97.2313 221.74H94.7059C94.0092 221.74 93.4431 222.305 93.4431 223.001C93.4431 223.697 94.0092 224.262 94.7059 224.262H97.2313C97.928 224.262 98.4941 223.697 98.4941 223.001C98.4941 222.305 97.928 221.74 97.2313 221.74Z" fill="black"/>
<path d="M109.859 221.74H107.333C106.637 221.74 106.071 222.305 106.071 223.001C106.071 223.697 106.637 224.262 107.333 224.262H109.859C110.555 224.262 111.122 223.697 111.122 223.001C111.122 222.305 110.555 221.74 109.859 221.74Z" fill="black"/>
<path d="M102.299 214.091C101.603 214.091 101.036 214.657 101.036 215.352V217.875C101.036 218.57 101.603 219.136 102.299 219.136C102.996 219.136 103.562 218.57 103.562 217.875V215.352C103.562 214.655 102.996 214.091 102.299 214.091Z" fill="black"/>
<path d="M102.299 226.702C101.603 226.702 101.036 227.268 101.036 227.963V230.485C101.036 231.181 101.603 231.746 102.299 231.746C102.996 231.746 103.562 231.181 103.562 230.485V227.963C103.562 227.265 102.996 226.702 102.299 226.702Z" fill="black"/>
<path d="M308.11 55.2769H305.584C304.888 55.2769 304.322 55.8422 304.322 56.5379C304.322 57.2336 304.888 57.799 305.584 57.799H308.11C308.806 57.799 309.373 57.2336 309.373 56.5379C309.373 55.8422 308.806 55.2769 308.11 55.2769Z" fill="black"/>
<path d="M320.737 55.2769H318.212C317.515 55.2769 316.949 55.8422 316.949 56.5379C316.949 57.2336 317.515 57.799 318.212 57.799H320.737C321.434 57.799 322 57.2336 322 56.5379C322 55.8422 321.434 55.2769 320.737 55.2769Z" fill="black"/>
<path d="M313.178 47.6284C312.481 47.6284 311.915 48.1938 311.915 48.8895V51.4117C311.915 52.1074 312.481 52.6728 313.178 52.6728C313.874 52.6728 314.44 52.1074 314.44 51.4117V48.8895C314.44 48.1917 313.874 47.6284 313.178 47.6284Z" fill="black"/>
<path d="M313.178 60.2393C312.481 60.2393 311.915 60.8046 311.915 61.5003V64.0225C311.915 64.7182 312.481 65.2836 313.178 65.2836C313.874 65.2836 314.44 64.7182 314.44 64.0225V61.5003C314.44 60.8025 313.874 60.2393 313.178 60.2393Z" fill="black"/>
<path d="M31.5687 185.168H18.9412C18.2446 185.168 17.6785 185.734 17.6785 186.43C17.6785 187.125 18.2446 187.691 18.9412 187.691H31.5687C32.2653 187.691 32.8314 187.125 32.8314 186.43C32.8314 185.734 32.2653 185.168 31.5687 185.168Z" fill="black"/>
<path d="M75.7648 193.996H35.357C34.6604 193.996 34.0942 194.561 34.0942 195.257C34.0942 195.952 34.6604 196.518 35.357 196.518H75.7648C76.4614 196.518 77.0276 195.952 77.0276 195.257C77.0276 194.561 76.4614 193.996 75.7648 193.996Z" fill="black"/>
<path d="M70.7138 202.823H60.6119C59.9153 202.823 59.3491 203.389 59.3491 204.084C59.3491 204.78 59.9153 205.345 60.6119 205.345H70.7138C71.4104 205.345 71.9766 204.78 71.9766 204.084C71.9766 203.389 71.4104 202.823 70.7138 202.823Z" fill="black"/>
<path d="M50.5097 202.823H27.7803C27.0837 202.823 26.5176 203.389 26.5176 204.084C26.5176 204.78 27.0837 205.345 27.7803 205.345H50.5097C51.2063 205.345 51.7725 204.78 51.7725 204.084C51.7725 203.389 51.2063 202.823 50.5097 202.823Z" fill="black"/>
<path d="M141.007 25.4312H75.3438C74.6472 25.4312 74.0811 25.9965 74.0811 26.6922C74.0811 27.3879 74.6472 27.9533 75.3438 27.9533H141.007C141.703 27.9533 142.269 27.3879 142.269 26.6922C142.269 25.9965 141.703 25.4312 141.007 25.4312Z" fill="black"/>
<path d="M110.701 16.604H87.9712C87.2746 16.604 86.7085 17.1694 86.7085 17.8651C86.7085 18.5608 87.2746 19.1262 87.9712 19.1262H110.701C111.397 19.1262 111.963 18.5608 111.963 17.8651C111.963 17.1694 111.397 16.604 110.701 16.604Z" fill="black"/>
<path d="M130.905 16.604H123.328C122.632 16.604 122.065 17.1694 122.065 17.8651C122.065 18.5608 122.632 19.1262 123.328 19.1262H130.905C131.601 19.1262 132.167 18.5608 132.167 17.8651C132.167 17.1694 131.601 16.604 130.905 16.604Z" fill="black"/>
<path d="M188.423 120.794C188.423 122.974 187.885 125.031 186.937 126.833C184.763 130.964 180.43 133.778 175.439 133.778H156.113V161.257H146.45L145.955 155.218L143.932 130.593C143.5 125.317 147.667 120.794 152.961 120.794H188.423Z" fill="#616161"/>
<path d="M188.423 120.794C188.423 122.974 187.885 125.031 186.937 126.833H166.681C163.346 126.833 160.642 124.129 160.642 120.794H188.423Z" fill="#424242"/>
<path d="M188.422 87.578V120.794H166.681V72.4795H173.324C175.598 72.4795 177.754 72.9839 179.687 73.8836C184.847 76.2844 188.422 81.5145 188.422 87.578Z" fill="#F4511E"/>
<path d="M87.2646 170.316C87.2646 158.809 96.5929 149.48 108.1 149.48C119.608 149.48 128.936 158.809 128.936 170.316H87.2646Z" fill="#B0BEC5"/>
<path d="M93.3749 170.316C93.1336 171.386 93.0022 172.496 93.0022 173.637C93.0022 181.963 99.7753 188.736 108.1 188.736C116.426 188.736 123.199 181.963 123.199 173.637C123.199 172.496 123.067 171.386 122.826 170.316H93.3749Z" fill="#616161"/>
<path d="M103.062 170.316C102.431 171.27 102.061 172.411 102.061 173.637C102.061 176.967 104.77 179.677 108.1 179.677C111.43 179.677 114.139 176.967 114.139 173.637C114.139 172.411 113.769 171.27 113.139 170.316H103.062Z" fill="#D8D7DA"/>
<path d="M184.266 170.316C184.025 171.386 183.893 172.496 183.893 173.637C183.893 181.963 190.666 188.736 198.992 188.736C207.317 188.736 214.09 181.963 214.09 173.637C214.09 172.496 213.958 171.386 213.717 170.316H184.266Z" fill="#616161"/>
<path d="M193.953 170.316C193.322 171.27 192.952 172.411 192.952 173.637C192.952 176.967 195.661 179.677 198.991 179.677C202.321 179.677 205.03 176.967 205.03 173.637C205.03 172.411 204.66 171.27 204.03 170.316H193.953Z" fill="#D8D7DA"/>
<path d="M140.066 95.6919L124.264 148.862L122.392 155.161C118.998 151.96 114.532 149.889 109.586 149.538L111.365 143.641L124.283 100.777C125.599 95.9515 130.579 93.104 135.404 94.4205L140.066 95.6919Z" fill="#F4511E"/>
<path d="M111.724 97.8447C117.061 97.8447 121.387 102.171 121.387 107.507C121.387 112.844 117.061 117.17 111.724 117.17V97.8447Z" fill="#FDD844"/>
<path d="M156.113 155.218V161.257H146.45L145.955 155.218H156.113Z" fill="#424242"/>
<path d="M173.627 161.257V170.316H139.505L127.055 160.671L126.209 160.016C125.182 158.213 123.893 156.576 122.392 155.16L124.745 147.243L129.896 151.108L143.43 161.257H173.627Z" fill="#B0BEC5"/>
<path d="M222.847 151.897V170.316H173.626V133.779H204.729C209.699 133.779 214.204 135.781 217.475 139.021C219.395 140.923 220.893 143.251 221.814 145.857C222.484 147.748 222.847 149.78 222.847 151.897Z" fill="#F4511E"/>
<path d="M217.49 140.159C217.275 146.85 212.088 151.896 205.423 151.896H185.705C181.07 151.896 176.833 150.145 173.626 147.267V133.778H204.729C209.699 133.778 214.204 135.78 217.475 139.02C217.499 139.395 217.502 139.775 217.49 140.159Z" fill="#D84315"/>
<path d="M205.423 145.857H185.705C179.034 145.857 173.626 140.449 173.626 133.778H204.729C205.123 133.778 205.515 133.791 205.903 133.816C213.613 134.309 213.148 145.857 205.423 145.857Z" fill="#B0BEC5"/>
<path d="M236.737 106.602H197.482V133.779H236.737V106.602Z" fill="#F4511E"/>
<path d="M174.981 76.9338C176.691 76.1671 178.284 75.1396 179.687 73.8836C177.754 72.9836 175.598 72.4795 173.324 72.4795H166.681V74.3606V78.4946V118.073C173.566 116.672 178.76 110.569 178.76 103.28V85.1621C178.76 81.8763 177.292 78.9286 174.981 76.9338Z" fill="#D84315"/>
<path d="M176.248 68.8172C174.436 70.6833 172.026 71.9668 169.327 72.3563C168.759 72.4378 168.179 72.4802 167.587 72.4802C161.427 72.4802 156.345 67.8692 155.602 61.9115C155.542 61.4164 155.509 60.912 155.509 60.4016C155.509 58.7981 155.823 57.2701 156.39 55.8721H168.795V59.9032C168.795 64.3572 172.011 68.0593 176.248 68.8172Z" fill="#FDD8A8"/>
<path d="M176.248 68.8171C174.436 70.6831 172.026 71.9666 169.327 72.3561C165.884 69.9916 163.466 66.2384 162.889 61.911H155.602C155.542 61.4159 155.509 60.9115 155.509 60.4011C155.509 58.7976 155.823 57.2696 156.39 55.8716H168.795V59.9027C168.795 64.357 172.011 68.0591 176.248 68.8171Z" fill="#FFC477"/>
<path d="M186.913 68.9613C188.19 66.0915 188.845 62.8866 188.707 59.5184C188.262 48.6574 179.493 39.8167 168.635 39.2892C158.077 38.7763 151.319 46.0604 149.167 55.8717H168.795V59.9019C168.795 64.9052 172.851 68.961 177.854 68.961H186.913V68.9613Z" fill="#F4511E"/>
<path d="M146.45 112.339H163.662C168.665 112.339 172.721 108.283 172.721 103.28V85.1621C172.721 82.4935 170.558 80.3306 167.889 80.3306C165.221 80.3306 163.058 82.4935 163.058 85.1621V102.676H146.45V112.339Z" fill="#F4511E"/>
<path d="M146.45 102.676H137.391C134.722 102.676 132.559 104.839 132.559 107.508C132.559 110.176 134.722 112.339 137.391 112.339H146.45V102.676Z" fill="#FDD8A8"/>
<path d="M236.737 106.602H197.482V112.641H236.737V106.602Z" fill="#D84315"/>
<path d="M236.737 99.0525C236.737 96.5511 234.709 94.5229 232.208 94.5229H202.011C199.51 94.5229 197.482 96.5508 197.482 99.0525V106.602H236.737V99.0525Z" fill="#F4511E"/>
<path d="M124.264 148.861L122.392 155.16C118.998 151.959 114.532 149.888 109.586 149.538L111.365 143.64C116.169 144.223 120.583 146.08 124.264 148.861Z" fill="#D84315"/>
<path d="M129.896 151.108L127.055 160.671L126.209 160.016C125.182 158.213 123.893 156.576 122.392 155.16L124.745 147.243L129.896 151.108Z" fill="#90A4AE"/>
<path d="M232.208 92.2583H202.011C198.265 92.2583 195.217 95.3064 195.217 99.0524V131.514H186.271C188.496 129.265 190.029 126.331 190.518 123.059H190.687V87.5781C190.687 80.0497 185.87 73.628 179.157 71.2262H188.384L188.982 69.882C190.449 66.5824 191.118 63.0644 190.969 59.4261C190.479 47.4474 180.717 37.609 168.745 37.0273C157.906 36.5042 149.554 43.5363 146.955 55.3869L146.352 58.1367H153.426C153.306 58.882 153.244 59.6373 153.244 60.4013C153.244 67.2207 158.028 72.9395 164.416 74.3872V78.9777C162.256 80.1956 160.793 82.5108 160.793 85.1625V100.412H141.025L142.896 94.1159L135.999 92.2357C133.081 91.4402 130.027 91.8282 127.401 93.3291C124.785 94.8246 122.904 97.2471 122.104 100.152L121.804 101.146C119.688 97.8048 115.961 95.5802 111.722 95.5802H109.459V119.435H111.723C113.464 119.435 115.117 119.057 116.61 118.384L107.92 147.22C95.2658 147.318 85 157.638 85 170.316V172.581H90.7727C90.751 172.933 90.7375 173.286 90.7375 173.638C90.7375 183.212 98.5263 191.001 108.1 191.001C117.674 191.001 125.463 183.212 125.463 173.638C125.463 173.286 125.45 172.933 125.428 172.581H131.201V170.316C131.201 169.016 131.087 167.742 130.88 166.499L138.73 172.581H181.664C181.642 172.933 181.629 173.286 181.629 173.638C181.629 183.212 189.418 191.001 198.992 191.001C208.566 191.001 216.355 183.212 216.355 173.638C216.355 173.286 216.341 172.933 216.319 172.581H225.112V151.896C225.112 149.563 224.72 147.276 223.95 145.103C222.665 141.464 220.405 138.362 217.529 136.043H239.002V99.0524C239.002 95.3064 235.954 92.2583 232.208 92.2583ZM113.988 100.464C116.964 101.423 119.122 104.218 119.122 107.507C119.122 110.797 116.964 113.592 113.988 114.551V100.464ZM202.011 96.7878H232.208C233.457 96.7878 234.472 97.8036 234.472 99.0524V104.337H225.413V100.562H220.884V104.337H214.845V100.562H210.315V104.337H199.746V99.0524C199.746 97.8036 200.762 96.7878 202.011 96.7878ZM205.631 136.072C205.696 136.076 205.762 136.079 205.826 136.084C208.389 136.282 209.242 138.252 209.19 139.894C209.136 141.6 208.116 143.592 205.423 143.592H185.705C181.073 143.592 177.18 140.366 176.156 136.043L205.331 136.055C205.63 136.055 205.331 136.055 205.631 136.072ZM171.362 158.993H158.377V136.043H171.362V158.993ZM175.438 131.514H153.848V158.993H148.537L146.19 130.409C146.033 128.494 146.663 126.662 147.964 125.25C149.266 123.837 151.041 123.059 152.961 123.059H185.918C184.875 127.886 180.572 131.514 175.438 131.514ZM137.391 114.604H163.662C163.915 114.604 164.167 114.592 164.417 114.576V118.529H152.961C149.806 118.529 146.771 119.86 144.633 122.18C142.495 124.501 141.417 127.635 141.675 130.78L143.978 158.838L127.364 146.377L136.815 114.578C137.005 114.594 137.197 114.604 137.391 114.604ZM186.158 87.5781V118.529H168.946V113.291C172.534 111.389 174.985 107.616 174.985 103.28V85.1625C174.985 81.6087 172.359 78.6574 168.946 78.1455V74.7448H173.325C180.401 74.7445 186.158 80.5015 186.158 87.5781ZM168.526 41.5511C178.178 42.02 186.049 49.9526 186.444 59.6111C186.544 62.0577 186.187 64.4348 185.381 66.6967H177.854C177.504 66.6967 177.16 66.6702 176.825 66.6188L176.648 66.5872C176.449 66.5517 176.255 66.5072 176.063 66.4555C176.053 66.4528 176.043 66.4497 176.033 66.4467C175.852 66.3968 175.674 66.3397 175.5 66.2759C175.472 66.2657 175.445 66.2539 175.417 66.2431C175.287 66.1935 175.16 66.1387 175.034 66.0816C174.956 66.0461 174.879 66.0091 174.803 65.9706C174.718 65.9279 174.634 65.8834 174.551 65.8374C174.392 65.7486 174.237 65.6542 174.086 65.5531C174.076 65.5465 174.066 65.5405 174.056 65.5339C173.605 65.2286 173.193 64.8706 172.828 64.4691L172.827 64.4688C172.684 64.3109 172.548 64.146 172.42 63.9752C172.416 63.9707 172.413 63.9665 172.409 63.962C172.223 63.7132 172.055 63.4506 171.904 63.1775C171.862 63.1026 171.823 63.0268 171.785 62.9504C171.737 62.8557 171.691 62.7597 171.648 62.6626C171.605 62.5657 171.563 62.4677 171.525 62.3687C171.5 62.3046 171.475 62.2406 171.452 62.1759C171.405 62.0448 171.363 61.9118 171.324 61.7771C171.312 61.7325 171.298 61.6886 171.287 61.6438C171.245 61.4874 171.21 61.3289 171.18 61.1686C171.173 61.1307 171.166 61.0919 171.16 61.0537C171.131 60.8855 171.107 60.7156 171.091 60.5435C171.089 60.5162 171.087 60.4885 171.085 60.4611C171.07 60.2767 171.06 60.0906 171.06 59.9029V53.6074H152.134C154.793 45.6324 160.766 41.1772 168.526 41.5511ZM157.773 60.4013C157.773 59.6325 157.862 58.8748 158.037 58.1367H166.53V59.9026C166.53 60.1257 166.538 60.3468 166.551 60.567C166.555 60.6386 166.562 60.7093 166.567 60.7803C166.579 60.9291 166.592 61.0777 166.61 61.2251C166.619 61.3072 166.63 61.3893 166.641 61.4709C166.66 61.6074 166.682 61.7431 166.706 61.8778C166.721 61.9608 166.734 62.0442 166.751 62.1266C166.78 62.2731 166.814 62.418 166.849 62.5624C166.886 62.7164 166.927 62.8686 166.97 63.0199C166.997 63.1137 167.023 63.2082 167.052 63.3011C167.092 63.4281 167.136 63.5529 167.18 63.678C167.201 63.7391 167.223 63.8001 167.246 63.8603C167.298 64.0008 167.353 64.1397 167.41 64.2772C167.421 64.303 167.432 64.3289 167.444 64.3548C168.314 66.3929 169.764 68.1365 171.613 69.3562C170.365 69.919 169 70.215 167.587 70.215C162.176 70.215 157.773 65.8127 157.773 60.4013ZM165.322 104.941V85.1622C165.322 83.747 166.474 82.5956 167.889 82.5956C169.304 82.5956 170.456 83.747 170.456 85.1622V103.28C170.456 107.026 167.408 110.074 163.662 110.074H137.391C135.976 110.074 134.824 108.923 134.824 107.507C134.824 106.092 135.976 104.941 137.391 104.941H165.322ZM126.45 101.431L126.466 101.373C126.944 99.6221 128.074 98.1621 129.65 97.2618C131.226 96.3613 133.058 96.1279 134.808 96.6055L137.235 97.267L136.274 100.5C132.89 101.037 130.295 103.974 130.295 107.507C130.295 109.59 131.196 111.465 132.629 112.764L123.5 143.479L123.112 144.785L121.181 151.284C121.148 151.261 121.113 151.241 121.08 151.218C120.867 151.073 120.65 150.935 120.432 150.798C120.34 150.74 120.25 150.678 120.158 150.622C117.848 149.203 115.272 148.181 112.523 147.646L126.45 101.431ZM120.934 173.638C120.934 180.714 115.177 186.471 108.1 186.471C101.024 186.471 95.2667 180.714 95.2667 173.638C95.2667 173.286 95.2814 172.934 95.3112 172.581H99.8678C99.823 172.93 99.7962 173.282 99.7962 173.638C99.7962 178.216 103.521 181.942 108.1 181.942C112.679 181.942 116.404 178.217 116.404 173.638C116.404 173.282 116.378 172.93 116.333 172.581H120.889C120.919 172.934 120.934 173.286 120.934 173.638ZM111.875 173.638C111.875 175.719 110.182 177.412 108.1 177.412C106.019 177.412 104.326 175.719 104.326 173.638C104.326 173.277 104.377 172.922 104.478 172.581H111.723C111.823 172.922 111.875 173.277 111.875 173.638ZM126.534 168.052H89.667C90.7871 158.876 98.6265 151.745 108.1 151.745C108.39 151.745 108.677 151.752 108.963 151.766L109.428 151.798C112.339 152.004 115.156 152.904 117.642 154.392C117.654 154.4 117.666 154.406 117.678 154.413C117.843 154.513 118.005 154.618 118.168 154.722C118.245 154.773 118.323 154.821 118.399 154.872C118.512 154.947 118.623 155.026 118.734 155.103C118.856 155.189 118.979 155.275 119.1 155.363C119.173 155.418 119.246 155.474 119.319 155.529C119.472 155.645 119.624 155.762 119.773 155.884C119.82 155.921 119.866 155.96 119.913 155.999C120.082 156.139 120.25 156.281 120.414 156.427C120.447 156.456 120.479 156.485 120.512 156.515C120.694 156.678 120.873 156.844 121.048 157.014C121.052 157.018 121.056 157.022 121.06 157.026C121.255 157.216 121.445 157.409 121.63 157.607C121.631 157.608 121.631 157.608 121.632 157.609C122.373 158.397 123.045 159.251 123.64 160.159C123.664 160.195 123.687 160.231 123.711 160.268C123.828 160.45 123.942 160.634 124.053 160.82C124.083 160.871 124.114 160.921 124.144 160.972C125.388 163.101 126.222 165.496 126.534 168.052ZM171.362 168.052H140.279L127.945 158.496C127.92 158.456 127.893 158.417 127.869 158.377C127.817 158.291 127.761 158.207 127.707 158.122C127.169 157.258 126.578 156.431 125.932 155.647C125.927 155.641 125.922 155.635 125.917 155.628C125.713 155.381 125.501 155.14 125.287 154.902C125.243 154.853 125.2 154.803 125.156 154.754C125.084 154.676 125.018 154.595 124.945 154.518L125.989 151.007L142.675 163.522H171.362V168.052H171.362ZM211.825 173.638C211.825 180.714 206.068 186.471 198.991 186.471C191.915 186.471 186.158 180.714 186.158 173.638C186.158 173.286 186.173 172.934 186.202 172.581H190.759C190.714 172.93 190.687 173.282 190.687 173.638C190.687 178.216 194.412 181.942 198.991 181.942C203.57 181.942 207.296 178.217 207.296 173.638C207.296 173.282 207.269 172.93 207.224 172.581H211.781C211.81 172.934 211.825 173.286 211.825 173.638ZM202.766 173.638C202.766 175.719 201.073 177.412 198.991 177.412C196.91 177.412 195.217 175.719 195.217 173.638C195.217 173.277 195.269 172.922 195.369 172.581H202.614C202.715 172.922 202.766 173.277 202.766 173.638ZM220.582 168.052H175.891V144.225C178.459 146.639 181.911 148.122 185.705 148.122H205.423C210.699 148.122 213.589 144.056 213.717 140.039C213.73 139.63 213.712 139.22 213.668 138.811C216.389 140.669 218.533 143.367 219.679 146.614C220.278 148.303 220.582 150.08 220.582 151.896L220.582 168.052ZM199.746 131.514V108.866H210.315V112.641H214.845V108.866H220.884V112.641H225.413V108.866H234.472V131.514H199.746Z" fill="black"/>
<path d="M238.851 145.405H230.094V149.934H238.851V145.405Z" fill="black"/>
<path d="M238.851 156.728H230.094V161.258H238.851V156.728Z" fill="black"/>
<path d="M238.851 168.052H230.094V172.581H238.851V168.052Z" fill="black"/>
<path d="M102.031 162.998L99.1355 159.515C101.65 157.425 104.834 156.274 108.1 156.274V160.804C105.889 160.804 103.734 161.583 102.031 162.998Z" fill="white"/>
<path d="M200.199 163.522H195.67V158.992H200.199V163.522ZM191.14 163.522H180.421V152.198H184.95V158.992H191.14V163.522Z" fill="white"/>
<path d="M216.052 151.896H211.523V158.842H216.052V151.896Z" fill="white"/>
<path d="M182.837 105.999H178.307V114.756H182.837V105.999Z" fill="white"/>
<path d="M229.943 126.984H220.129V122.455H225.414V117.17H229.943V126.984Z" fill="white"/>
<path d="M177.395 60.0301L177.392 59.9814C177.324 58.3229 176.819 56.692 175.931 55.2654L179.776 52.8721C181.073 54.9553 181.812 57.3405 181.917 59.7712L181.919 59.8274L179.602 59.9047L177.395 60.0301Z" fill="white"/>
<path d="M171.815 46.0576H161.548V50.5871H171.815V46.0576Z" fill="white"/>
</svg>
