<svg width="331" height="230" viewBox="0 0 331 230" fill="none" xmlns="http://www.w3.org/2000/svg">
<path d="M319.813 120.523H284.757H275.395C269.347 120.523 264.072 115.543 264.07 109.51C264.072 103.476 269.347 98.6705 275.395 98.6705H284.757H297.3C303.348 98.6705 307.879 93.691 307.879 87.6574C307.877 81.6238 303.348 76.8184 297.3 76.8184H271.231C265.755 62.4101 257.202 48.9023 245.573 37.2984C205.36 -2.81845 142.291 -6.23587 98.1825 27.0441H42.1802C36.1321 27.0441 31.6397 31.5622 31.6397 37.5979V37.7456C31.6397 43.7792 36.1321 48.8982 42.1802 48.8982H47.4596H76.8622C82.9102 48.8982 87.6176 53.4164 87.6176 59.452V59.5997C87.6176 65.6333 82.9102 70.7524 76.8622 70.7524H47.4596H10.5405C4.49243 70.7483 0 75.2664 0 81.3021V81.4498C0 87.4834 4.49243 92.6025 10.5405 92.6025H47.4596H54.9578C61.0058 92.6025 65.7132 97.1206 65.7132 103.156V103.304C65.7132 109.338 61.0058 114.457 54.9578 114.457H47.4596H33.0534C27.0053 114.457 21.9044 118.975 21.9044 125.01V125.158C21.9044 131.192 27.0053 136.311 33.0534 136.311H55.1342C59.006 158.215 69.4208 179.194 86.3845 196.115C130.343 239.969 201.616 239.969 245.575 196.115C248.787 192.91 251.763 189.559 254.505 186.085H288.173C294.221 186.085 299.36 181.106 299.36 175.072C299.358 169.038 294.221 164.233 288.173 164.233H284.757H253.491C247.443 164.233 242.167 159.253 242.165 153.22C242.167 147.186 247.443 142.381 253.491 142.381H284.757H319.813C325.861 142.381 331 137.401 331 131.368C330.998 125.328 325.861 120.523 319.813 120.523Z" fill="#EDF1F3"/>
<path d="M38.9249 87.7441H31.6234C30.95 87.7441 30.4065 88.2884 30.4065 88.9582C30.4065 89.6279 30.95 90.1722 31.6234 90.1722H38.9249C39.5982 90.1722 40.1418 89.6279 40.1418 88.9582C40.1418 88.2864 39.5982 87.7441 38.9249 87.7441Z" fill="black"/>
<path d="M72.9983 87.7441H46.2262C45.5528 87.7441 45.0093 88.2884 45.0093 88.9582C45.0093 89.6279 45.5528 90.1722 46.2262 90.1722H72.9983C73.6716 90.1722 74.2152 89.6279 74.2152 88.9582C74.2152 88.2864 73.6716 87.7441 72.9983 87.7441Z" fill="black"/>
<path d="M51.094 95.0283H24.3219C23.6485 95.0283 23.105 95.5726 23.105 96.2423C23.105 96.9121 23.6485 97.4564 24.3219 97.4564H51.094C51.7673 97.4564 52.3109 96.9121 52.3109 96.2423C52.3109 95.5706 51.7673 95.0283 51.094 95.0283Z" fill="black"/>
<path d="M65.6969 95.0283H60.8292C60.1559 95.0283 59.6123 95.5726 59.6123 96.2423C59.6123 96.9121 60.1559 97.4564 60.8292 97.4564H65.6969C66.3702 97.4564 66.9138 96.9121 66.9138 96.2423C66.9138 95.5706 66.3702 95.0283 65.6969 95.0283Z" fill="black"/>
<path d="M93.6858 204.289H90.035C89.3617 204.289 88.8181 204.833 88.8181 205.503C88.8181 206.172 89.3617 206.717 90.035 206.717H93.6858C94.3591 206.717 94.9027 206.172 94.9027 205.503C94.9027 204.831 94.3591 204.289 93.6858 204.289Z" fill="black"/>
<path d="M111.939 204.289H108.289C107.615 204.289 107.072 204.833 107.072 205.503C107.072 206.172 107.615 206.717 108.289 206.717H111.939C112.613 206.717 113.156 206.172 113.156 205.503C113.156 204.831 112.613 204.289 111.939 204.289Z" fill="black"/>
<path d="M94.1037 196.838C93.6291 196.365 92.8584 196.365 92.3838 196.838C91.9092 197.312 91.9092 198.081 92.3838 198.554L94.9657 201.13C95.203 201.367 95.5153 201.486 95.8256 201.486C96.1379 201.486 96.4483 201.367 96.6856 201.13C97.1602 200.657 97.1602 199.888 96.6856 199.414L94.1037 196.838Z" fill="black"/>
<path d="M107.011 209.715C106.536 209.242 105.766 209.242 105.291 209.715C104.816 210.189 104.816 210.958 105.291 211.431L107.873 214.007C108.11 214.244 108.423 214.363 108.733 214.363C109.045 214.363 109.355 214.244 109.593 214.007C110.067 213.533 110.067 212.765 109.593 212.291L107.011 209.715Z" fill="black"/>
<path d="M101.004 193.284C100.33 193.284 99.7866 193.828 99.7866 194.498V198.14C99.7866 198.809 100.33 199.354 101.004 199.354C101.677 199.354 102.22 198.809 102.22 198.14V194.498C102.22 193.826 101.677 193.284 101.004 193.284Z" fill="black"/>
<path d="M101.004 211.494C100.33 211.494 99.7866 212.038 99.7866 212.708V216.35C99.7866 217.019 100.33 217.564 101.004 217.564C101.677 217.564 102.22 217.019 102.22 216.35V212.708C102.22 212.036 101.677 211.494 101.004 211.494Z" fill="black"/>
<path d="M107.871 196.838L105.289 199.414C104.814 199.888 104.814 200.657 105.289 201.13C105.526 201.367 105.839 201.486 106.149 201.486C106.461 201.486 106.772 201.367 107.009 201.13L109.591 198.554C110.065 198.081 110.065 197.312 109.591 196.838C109.116 196.365 108.348 196.365 107.871 196.838Z" fill="black"/>
<path d="M94.9634 209.715L92.3816 212.291C91.907 212.765 91.907 213.533 92.3816 214.007C92.6189 214.244 92.9312 214.363 93.2415 214.363C93.5539 214.363 93.8642 214.244 94.1015 214.007L96.6833 211.431C97.1579 210.958 97.1579 210.189 96.6833 209.715C96.2108 209.242 95.4401 209.242 94.9634 209.715Z" fill="black"/>
<path d="M232.414 31.8999H228.763C228.09 31.8999 227.546 32.4442 227.546 33.1139C227.546 33.7836 228.09 34.3279 228.763 34.3279H232.414C233.087 34.3279 233.631 33.7836 233.631 33.1139C233.631 32.4422 233.087 31.8999 232.414 31.8999Z" fill="black"/>
<path d="M250.667 31.8999H247.017C246.343 31.8999 245.8 32.4442 245.8 33.1139C245.8 33.7836 246.343 34.3279 247.017 34.3279H250.667C251.341 34.3279 251.884 33.7836 251.884 33.1139C251.884 32.4422 251.341 31.8999 250.667 31.8999Z" fill="black"/>
<path d="M232.832 24.4498C232.357 23.9764 231.586 23.9764 231.112 24.4498C230.637 24.9233 230.637 25.6922 231.112 26.1656L233.694 28.7413C233.931 28.9781 234.243 29.0974 234.554 29.0974C234.864 29.0974 235.176 28.9781 235.414 28.7413C235.888 28.2679 235.888 27.499 235.414 27.0255L232.832 24.4498Z" fill="black"/>
<path d="M245.739 37.3268C245.264 36.8533 244.494 36.8533 244.019 37.3268C243.544 37.8002 243.544 38.5691 244.019 39.0426L246.601 41.6183C246.838 41.855 247.151 41.9744 247.461 41.9744C247.771 41.9744 248.084 41.855 248.321 41.6183C248.795 41.1448 248.795 40.376 248.321 39.9025L245.739 37.3268Z" fill="black"/>
<path d="M239.732 20.895C239.058 20.895 238.515 21.4393 238.515 22.109V25.751C238.515 26.4208 239.058 26.9651 239.732 26.9651C240.405 26.9651 240.948 26.4208 240.948 25.751V22.109C240.948 21.4373 240.405 20.895 239.732 20.895Z" fill="black"/>
<path d="M239.732 39.105C239.058 39.105 238.515 39.6493 238.515 40.319V43.961C238.515 44.6307 239.058 45.175 239.732 45.175C240.405 45.175 240.948 44.6307 240.948 43.961V40.319C240.948 39.6472 240.405 39.105 239.732 39.105Z" fill="black"/>
<path d="M246.599 24.4498L244.017 27.0255C243.542 27.499 243.542 28.2679 244.017 28.7413C244.254 28.9781 244.567 29.0974 244.877 29.0974C245.187 29.0974 245.5 28.9781 245.737 28.7413L248.319 26.1656C248.793 25.6922 248.793 24.9233 248.319 24.4498C247.844 23.9764 247.076 23.9764 246.599 24.4498Z" fill="black"/>
<path d="M233.691 37.3268L231.11 39.9025C230.635 40.376 230.635 41.1448 231.11 41.6183C231.347 41.855 231.659 41.9744 231.97 41.9744C232.28 41.9744 232.592 41.855 232.829 41.6183L235.411 39.0426C235.886 38.5691 235.886 37.8002 235.411 37.3268C234.939 36.8533 234.168 36.8533 233.691 37.3268Z" fill="black"/>
<path d="M206.632 7.68869L203.91 6.20355H203.908C202.679 5.59655 201.671 4.52822 200.995 3.30006L199.507 0.584729C199.081 -0.196281 197.797 -0.192234 197.371 0.584729L195.884 3.30006C195.209 4.52822 194.203 5.53383 192.972 6.20355L190.252 7.68869C189.86 7.90114 189.619 8.30985 189.619 8.75296C189.619 9.19608 189.863 9.60479 190.252 9.81724L192.974 11.3024C194.203 11.9741 195.211 12.9777 195.884 14.2059L197.373 16.9212C197.586 17.3097 197.996 17.5525 198.442 17.5525C198.886 17.5525 199.296 17.3097 199.509 16.9212L200.997 14.2059C201.673 12.9777 202.679 11.9721 203.91 11.3024L206.632 9.81724C207.021 9.60479 207.264 9.19608 207.264 8.75094C207.264 8.31188 207.021 7.90316 206.632 7.68869ZM202.742 9.17382C201.101 10.0681 199.76 11.4056 198.864 13.0425L198.442 13.8093L198.022 13.0425C197.123 11.4056 195.783 10.0681 194.144 9.17382L193.373 8.75296L194.144 8.33211C195.785 7.43779 197.125 6.10036 198.024 4.46348L198.444 3.69663L198.866 4.46348C199.764 6.10036 201.105 7.43779 202.744 8.33211L203.514 8.75296L202.742 9.17382Z" fill="black"/>
<path d="M292.931 140.926L290.209 139.441C288.976 138.769 287.97 137.764 287.297 136.537L285.808 133.822C285.382 133.043 284.098 133.043 283.674 133.822L282.183 136.537C281.512 137.764 280.506 138.769 279.275 139.441L276.553 140.926C276.162 141.138 275.92 141.547 275.92 141.99C275.92 142.433 276.164 142.842 276.553 143.055L279.275 144.54C280.506 145.211 281.512 146.215 282.185 147.443L283.674 150.159C283.887 150.547 284.297 150.79 284.741 150.79C285.185 150.79 285.595 150.547 285.808 150.159L287.299 147.443C287.97 146.215 288.976 145.211 290.207 144.54L292.929 143.055C293.32 142.842 293.562 142.433 293.562 141.99C293.564 141.547 293.32 141.138 292.931 140.926ZM289.041 142.411C287.4 143.305 286.059 144.645 285.163 146.28L284.741 147.049L284.321 146.28C283.425 144.643 282.084 143.305 280.443 142.411L279.673 141.99L280.443 141.569C282.084 140.673 283.425 139.336 284.319 137.701L284.741 136.932L285.161 137.699C286.057 139.334 287.398 140.756 289.039 141.565H289.041L289.812 141.988L289.041 142.411Z" fill="black"/>
<path d="M292.042 74.3901H289.609C288.935 74.3901 288.392 74.9344 288.392 75.6041C288.392 76.2739 288.935 76.8182 289.609 76.8182H292.042C292.716 76.8182 293.259 76.2739 293.259 75.6041C293.259 74.9324 292.716 74.3901 292.042 74.3901Z" fill="black"/>
<path d="M304.211 74.3901H301.778C301.104 74.3901 300.561 74.9344 300.561 75.6041C300.561 76.2739 301.104 76.8182 301.778 76.8182H304.211C304.885 76.8182 305.428 76.2739 305.428 75.6041C305.428 74.9324 304.885 74.3901 304.211 74.3901Z" fill="black"/>
<path d="M296.926 67.0273C296.253 67.0273 295.709 67.5716 295.709 68.2414V70.6694C295.709 71.3391 296.253 71.8834 296.926 71.8834C297.6 71.8834 298.143 71.3391 298.143 70.6694V68.2414C298.143 67.5696 297.6 67.0273 296.926 67.0273Z" fill="black"/>
<path d="M296.926 79.1675C296.253 79.1675 295.709 79.7118 295.709 80.3815V82.8095C295.709 83.4792 296.253 84.0235 296.926 84.0235C297.6 84.0235 298.143 83.4792 298.143 82.8095V80.3815C298.143 79.7097 297.6 79.1675 296.926 79.1675Z" fill="black"/>
<path d="M46.2264 44.04H43.7926C43.1192 44.04 42.5757 44.5843 42.5757 45.254C42.5757 45.9238 43.1192 46.4681 43.7926 46.4681H46.2264C46.8998 46.4681 47.4433 45.9238 47.4433 45.254C47.4433 44.5823 46.8998 44.04 46.2264 44.04Z" fill="black"/>
<path d="M58.3956 44.04H55.9618C55.2884 44.04 54.7449 44.5843 54.7449 45.254C54.7449 45.9238 55.2884 46.4681 55.9618 46.4681H58.3956C59.069 46.4681 59.6125 45.9238 59.6125 45.254C59.6125 44.5823 59.069 44.04 58.3956 44.04Z" fill="black"/>
<path d="M51.1102 36.6772C50.4369 36.6772 49.8933 37.2215 49.8933 37.8912V40.3193C49.8933 40.989 50.4369 41.5333 51.1102 41.5333C51.7836 41.5333 52.3271 40.989 52.3271 40.3193V37.8912C52.3271 37.2195 51.7836 36.6772 51.1102 36.6772Z" fill="black"/>
<path d="M51.1102 48.8174C50.4369 48.8174 49.8933 49.3617 49.8933 50.0314V52.4594C49.8933 53.1291 50.4369 53.6734 51.1102 53.6734C51.7836 53.6734 52.3271 53.1291 52.3271 52.4594V50.0314C52.3271 49.3596 51.7836 48.8174 51.1102 48.8174Z" fill="black"/>
<path d="M152.098 20.9741H98.5536C97.8802 20.9741 97.3367 21.5184 97.3367 22.1881C97.3367 22.8579 97.8802 23.4021 98.5536 23.4021H152.098C152.771 23.4021 153.315 22.8579 153.315 22.1881C153.315 21.5164 152.771 20.9741 152.098 20.9741Z" fill="black"/>
<path d="M188.605 197.005H176.436C175.763 197.005 175.219 197.549 175.219 198.219C175.219 198.889 175.763 199.433 176.436 199.433H188.605C189.278 199.433 189.822 198.889 189.822 198.219C189.822 197.547 189.278 197.005 188.605 197.005Z" fill="black"/>
<path d="M260.403 205.503H192.256C191.582 205.503 191.039 206.047 191.039 206.717C191.039 207.387 191.582 207.931 192.256 207.931H260.403C261.076 207.931 261.62 207.387 261.62 206.717C261.62 206.047 261.076 205.503 260.403 205.503Z" fill="black"/>
<path d="M249.45 214.001H216.594C215.921 214.001 215.377 214.545 215.377 215.215C215.377 215.885 215.921 216.429 216.594 216.429H249.45C250.124 216.429 250.667 215.885 250.667 215.215C250.667 214.545 250.124 214.001 249.45 214.001Z" fill="black"/>
<path d="M206.859 214.001H184.954C184.281 214.001 183.737 214.545 183.737 215.215C183.737 215.885 184.281 216.429 184.954 216.429H206.859C207.532 216.429 208.076 215.885 208.076 215.215C208.076 214.545 207.532 214.001 206.859 214.001Z" fill="black"/>
<path d="M127.759 12.4761H110.723C110.049 12.4761 109.506 13.0204 109.506 13.6901C109.506 14.3598 110.049 14.9041 110.723 14.9041H127.759C128.433 14.9041 128.976 14.3598 128.976 13.6901C128.976 13.0183 128.433 12.4761 127.759 12.4761Z" fill="black"/>
<path d="M142.362 12.4761H135.061C134.388 12.4761 133.844 13.0204 133.844 13.6901C133.844 14.3598 134.388 14.9041 135.061 14.9041H142.362C143.036 14.9041 143.579 14.3598 143.579 13.6901C143.579 13.0183 143.036 12.4761 142.362 12.4761Z" fill="black"/>
<path d="M155.394 146.828L155.503 146.744L179.47 146.741L179.579 146.825C198.399 148.8 212.204 155.28 212.204 162.969C212.204 172.228 192.191 179.733 167.5 179.733C142.81 179.733 122.797 172.228 122.797 162.969C122.797 155.283 136.588 148.806 155.394 146.828Z" fill="#85E374"/>
<path d="M167.165 42.2679C142.475 42.4551 122.612 62.6193 122.797 87.3071C122.953 108.215 135.392 120.528 155.503 146.744C159.247 151.622 163.257 156.981 167.501 162.969C171.734 156.975 175.735 151.616 179.471 146.741C199.838 120.176 212.364 108.056 212.205 86.6365C212.018 61.9459 191.853 42.0835 167.165 42.2679ZM150.737 87.0975C150.667 77.8381 158.116 70.2777 167.375 70.2079C176.634 70.138 184.195 77.5869 184.265 86.8461C184.334 96.1052 176.885 103.666 167.626 103.736C158.367 103.806 150.807 96.3569 150.737 87.0975Z" fill="#FD6244"/>
<path d="M167.268 56.238C165.726 56.2492 164.466 55.0087 164.455 53.4664C164.444 51.9241 165.684 50.6639 167.227 50.65C168.772 50.6388 170.032 51.8821 170.043 53.4244C170.054 54.9668 168.814 56.2269 167.268 56.238Z" fill="black"/>
<path d="M167.354 67.4141C178.142 67.3375 186.977 76.0406 187.059 86.8253C187.14 97.6094 178.432 106.449 167.647 106.53C167.597 106.53 167.548 106.53 167.498 106.53C156.782 106.53 148.024 97.8534 147.943 87.1187C147.861 76.3351 156.569 67.4954 167.354 67.4141ZM167.498 100.943C167.533 100.943 167.57 100.942 167.605 100.942C175.309 100.884 181.529 94.5701 181.471 86.8672C181.413 79.199 175.158 73.0013 167.503 73.0013C167.468 73.0013 167.431 73.0016 167.396 73.0019C159.692 73.06 153.472 79.3739 153.53 87.0768C153.589 94.745 159.844 100.943 167.498 100.943Z" fill="black"/>
<path d="M155.31 52.7693C156.763 52.2535 158.361 53.0149 158.877 54.4695C159.393 55.924 158.631 57.5208 157.177 58.0366C144.87 62.3984 136.668 74.1196 136.767 87.2032C136.778 88.7461 135.537 90.0065 133.993 90.0182C133.986 90.0182 133.979 90.0182 133.972 90.0182C132.439 90.0182 131.19 88.781 131.178 87.2451C131.062 71.781 140.76 57.9262 155.31 52.7693Z" fill="black"/>
<path d="M120.003 87.3282C119.806 60.9965 141.175 39.4727 167.505 39.4727C193.527 39.4727 214.801 60.5475 214.998 86.6158C215.158 108.112 203.329 120.569 184.616 144.648C203.232 147.429 214.998 154.419 214.998 162.969C214.998 168.696 209.705 173.835 200.093 177.439C191.344 180.72 179.769 182.527 167.5 182.527C155.232 182.527 143.657 180.72 134.908 177.439C125.296 173.834 120.003 168.695 120.003 162.968C120.003 154.423 131.759 147.436 150.357 144.652C131.773 120.731 120.159 108.257 120.003 87.3282ZM125.591 162.969C125.591 169.564 143.513 176.939 167.501 176.939C191.488 176.939 209.411 169.564 209.411 162.969C209.411 158.078 198.696 151.9 180.681 149.761C176.699 154.986 173.207 159.733 169.783 164.581C169.26 165.322 168.41 165.763 167.503 165.763C167.502 165.763 167.502 165.763 167.501 165.763C166.595 165.763 165.745 165.324 165.221 164.585C161.829 159.8 158.242 154.936 154.294 149.764C136.295 151.905 125.591 158.081 125.591 162.969ZM157.719 145.043C161.226 149.613 164.447 153.933 167.496 158.16C170.536 153.931 173.693 149.688 177.253 145.041C197.729 118.335 209.562 107.012 209.411 86.6579C209.236 63.655 190.467 45.0607 167.504 45.0607C144.27 45.0607 125.417 64.0568 125.59 87.2866C125.739 107.162 138.056 119.41 157.719 145.043Z" fill="black"/>
</svg>
