<svg width="301" height="210" viewBox="0 0 301 210" fill="none" xmlns="http://www.w3.org/2000/svg">
<path d="M290.826 109.997H258.949H250.435C244.935 109.997 240.138 105.452 240.136 99.9454C240.138 94.4387 244.935 90.053 250.435 90.053H258.949H270.354C275.854 90.053 279.974 85.5084 279.974 80.0018C279.972 74.4951 275.854 70.1094 270.354 70.1094H246.648C241.669 56.9595 233.891 44.6314 223.315 34.0409C186.747 -2.57227 129.395 -5.69123 89.2838 24.6822H38.3572C32.8573 24.6822 28.7721 28.8057 28.7721 34.3142V34.449C28.7721 39.9557 32.8573 44.6277 38.3572 44.6277H43.1581H69.8958C75.3957 44.6277 79.6765 48.7512 79.6765 54.2597V54.3945C79.6765 59.9012 75.3957 64.5731 69.8958 64.5731H43.1581H9.58515C4.08526 64.5695 0 68.693 0 74.2015V74.3363C0 79.843 4.08526 84.5149 9.58515 84.5149H43.1581H49.9767C55.4766 84.5149 59.7574 88.6385 59.7574 94.147V94.2818C59.7574 99.7884 55.4766 104.46 49.9767 104.46H43.1581H30.0576C24.5577 104.46 19.9191 108.584 19.9191 114.092V114.227C19.9191 119.734 24.5577 124.406 30.0576 124.406H50.1372C53.658 144.398 63.1289 163.543 78.5551 178.987C118.53 219.011 183.343 219.011 223.317 178.987C226.239 176.062 228.944 173.004 231.438 169.833H262.054C267.554 169.833 272.228 165.289 272.228 159.782C272.226 154.275 267.554 149.889 262.054 149.889H258.949H230.516C225.016 149.889 220.219 145.345 220.217 139.838C220.219 134.332 225.016 129.946 230.516 129.946H258.949H290.826C296.326 129.946 301 125.401 301 119.895C300.998 114.382 296.326 109.997 290.826 109.997Z" fill="#EDF1F3"/>
<path d="M35.3967 80.0811H28.757C28.1447 80.0811 27.6504 80.5778 27.6504 81.189C27.6504 81.8003 28.1447 82.297 28.757 82.297H35.3967C36.009 82.297 36.5033 81.8003 36.5033 81.189C36.5033 80.576 36.009 80.0811 35.3967 80.0811Z" fill="black"/>
<path d="M66.3819 80.0811H42.0363C41.424 80.0811 40.9297 80.5778 40.9297 81.189C40.9297 81.8003 41.424 82.297 42.0363 82.297H66.3819C66.9942 82.297 67.4885 81.8003 67.4885 81.189C67.4885 80.576 66.9942 80.0811 66.3819 80.0811Z" fill="black"/>
<path d="M46.4629 86.729H22.1174C21.505 86.729 21.0107 87.2258 21.0107 87.837C21.0107 88.4482 21.505 88.945 22.1174 88.945H46.4629C47.0753 88.945 47.5696 88.4482 47.5696 87.837C47.5696 87.2239 47.0753 86.729 46.4629 86.729Z" fill="black"/>
<path d="M59.7426 86.729H55.3161C54.7038 86.729 54.2095 87.2258 54.2095 87.837C54.2095 88.4482 54.7038 88.945 55.3161 88.945H59.7426C60.3549 88.945 60.8492 88.4482 60.8492 87.837C60.8492 87.2239 60.3549 86.729 59.7426 86.729Z" fill="black"/>
<path d="M85.1945 186.447H81.8747C81.2624 186.447 80.7681 186.944 80.7681 187.555C80.7681 188.166 81.2624 188.663 81.8747 188.663H85.1945C85.8069 188.663 86.3012 188.166 86.3012 187.555C86.3012 186.942 85.8069 186.447 85.1945 186.447Z" fill="black"/>
<path d="M101.794 186.447H98.4738C97.8615 186.447 97.3672 186.944 97.3672 187.555C97.3672 188.166 97.8615 188.663 98.4738 188.663H101.794C102.406 188.663 102.9 188.166 102.9 187.555C102.9 186.942 102.406 186.447 101.794 186.447Z" fill="black"/>
<path d="M85.5747 179.648C85.1431 179.216 84.4423 179.216 84.0107 179.648C83.5791 180.08 83.5791 180.782 84.0107 181.214L86.3586 183.565C86.5744 183.781 86.8584 183.89 87.1406 183.89C87.4246 183.89 87.7068 183.781 87.9226 183.565C88.3542 183.132 88.3542 182.431 87.9226 181.999L85.5747 179.648Z" fill="black"/>
<path d="M97.312 191.4C96.8804 190.968 96.1796 190.968 95.748 191.4C95.3164 191.832 95.3164 192.534 95.748 192.966L98.0959 195.316C98.3117 195.533 98.5957 195.641 98.8779 195.641C99.1619 195.641 99.4441 195.533 99.6599 195.316C100.091 194.884 100.091 194.183 99.6599 193.751L97.312 191.4Z" fill="black"/>
<path d="M91.8488 176.403C91.2365 176.403 90.7422 176.9 90.7422 177.511V180.835C90.7422 181.446 91.2365 181.943 91.8488 181.943C92.4611 181.943 92.9554 181.446 92.9554 180.835V177.511C92.9554 176.898 92.4611 176.403 91.8488 176.403Z" fill="black"/>
<path d="M91.8488 193.023C91.2365 193.023 90.7422 193.52 90.7422 194.131V197.455C90.7422 198.066 91.2365 198.563 91.8488 198.563C92.4611 198.563 92.9554 198.066 92.9554 197.455V194.131C92.9554 193.518 92.4611 193.023 91.8488 193.023Z" fill="black"/>
<path d="M98.0939 179.648L95.7461 181.999C95.3145 182.431 95.3145 183.132 95.7461 183.565C95.9618 183.781 96.2459 183.89 96.5281 183.89C96.8121 183.89 97.0943 183.781 97.3101 183.565L99.658 181.214C100.09 180.782 100.09 180.08 99.658 179.648C99.2264 179.216 98.5274 179.216 98.0939 179.648Z" fill="black"/>
<path d="M86.3566 191.4L84.0087 193.751C83.5772 194.183 83.5772 194.884 84.0087 195.316C84.2245 195.533 84.5086 195.641 84.7907 195.641C85.0748 195.641 85.357 195.533 85.5728 195.316L87.9206 192.966C88.3522 192.534 88.3522 191.832 87.9206 191.4C87.4909 190.968 86.79 190.968 86.3566 191.4Z" fill="black"/>
<path d="M211.349 29.114H208.029C207.417 29.114 206.922 29.6108 206.922 30.222C206.922 30.8332 207.417 31.33 208.029 31.33H211.349C211.961 31.33 212.455 30.8332 212.455 30.222C212.455 29.6089 211.961 29.114 211.349 29.114Z" fill="black"/>
<path d="M227.948 29.114H224.628C224.016 29.114 223.521 29.6108 223.521 30.222C223.521 30.8332 224.016 31.33 224.628 31.33H227.948C228.56 31.33 229.055 30.8332 229.055 30.222C229.055 29.6089 228.56 29.114 227.948 29.114Z" fill="black"/>
<path d="M211.729 22.3147C211.297 21.8826 210.596 21.8826 210.165 22.3147C209.733 22.7468 209.733 23.4485 210.165 23.8806L212.512 26.2314C212.728 26.4475 213.012 26.5564 213.294 26.5564C213.577 26.5564 213.861 26.4475 214.076 26.2314C214.508 25.7993 214.508 25.0976 214.076 24.6655L211.729 22.3147Z" fill="black"/>
<path d="M223.466 34.0666C223.035 33.6345 222.334 33.6345 221.902 34.0666C221.471 34.4988 221.471 35.2005 221.902 35.6326L224.25 37.9834C224.466 38.1994 224.75 38.3084 225.032 38.3084C225.314 38.3084 225.598 38.1994 225.814 37.9834C226.246 37.5512 226.246 36.8495 225.814 36.4174L223.466 34.0666Z" fill="black"/>
<path d="M218.003 19.0702C217.391 19.0702 216.896 19.5669 216.896 20.1782V23.5021C216.896 24.1133 217.391 24.6101 218.003 24.6101C218.615 24.6101 219.11 24.1133 219.11 23.5021V20.1782C219.11 19.5651 218.615 19.0702 218.003 19.0702Z" fill="black"/>
<path d="M218.003 35.6899C217.391 35.6899 216.896 36.1867 216.896 36.7979V40.1219C216.896 40.7331 217.391 41.2298 218.003 41.2298C218.615 41.2298 219.11 40.7331 219.11 40.1219V36.7979C219.11 36.1848 218.615 35.6899 218.003 35.6899Z" fill="black"/>
<path d="M224.248 22.3147L221.9 24.6655C221.469 25.0976 221.469 25.7993 221.9 26.2314C222.116 26.4475 222.4 26.5564 222.682 26.5564C222.965 26.5564 223.249 26.4475 223.464 26.2314L225.812 23.8806C226.244 23.4485 226.244 22.7468 225.812 22.3147C225.381 21.8826 224.682 21.8826 224.248 22.3147Z" fill="black"/>
<path d="M212.511 34.0666L210.163 36.4174C209.731 36.8495 209.731 37.5512 210.163 37.9834C210.379 38.1994 210.663 38.3084 210.945 38.3084C211.227 38.3084 211.511 38.1994 211.727 37.9834L214.075 35.6326C214.506 35.2005 214.506 34.4988 214.075 34.0666C213.645 33.6345 212.944 33.6345 212.511 34.0666Z" fill="black"/>
<path d="M187.904 7.01723L185.428 5.6618H185.427C184.309 5.10781 183.392 4.13279 182.778 3.01188L181.424 0.533704C181.037 -0.179096 179.87 -0.175402 179.482 0.533704L178.13 3.01188C177.516 4.13279 176.601 5.05057 175.482 5.6618L173.009 7.01723C172.653 7.21112 172.433 7.58414 172.433 7.98856C172.433 8.39297 172.654 8.76599 173.009 8.95988L175.484 10.3153C176.601 10.9284 177.518 11.8443 178.13 12.9652L179.484 15.4434C179.678 15.798 180.05 16.0196 180.456 16.0196C180.86 16.0196 181.233 15.798 181.426 15.4434L182.78 12.9652C183.394 11.8443 184.309 10.9265 185.428 10.3153L187.904 8.95988C188.258 8.76599 188.479 8.39297 188.479 7.98671C188.479 7.58599 188.258 7.21297 187.904 7.01723ZM184.366 8.37266C182.874 9.18887 181.655 10.4095 180.84 11.9034L180.456 12.6033L180.074 11.9034C179.257 10.4095 178.038 9.18887 176.548 8.37266L175.847 7.98856L176.548 7.60446C178.04 6.78825 179.259 5.56762 180.076 4.0737L180.458 3.37382L180.842 4.0737C181.659 5.56762 182.878 6.78825 184.368 7.60446L185.069 7.98856L184.366 8.37266Z" fill="black"/>
<path d="M266.381 128.618L263.906 127.263C262.785 126.649 261.87 125.732 261.258 124.613L259.904 122.134C259.517 121.423 258.349 121.423 257.964 122.134L256.608 124.613C255.998 125.732 255.083 126.649 253.963 127.263L251.488 128.618C251.132 128.812 250.913 129.185 250.913 129.589C250.913 129.994 251.134 130.367 251.488 130.561L253.963 131.916C255.083 132.529 255.998 133.445 256.61 134.566L257.964 137.044C258.157 137.399 258.53 137.62 258.934 137.62C259.338 137.62 259.71 137.399 259.904 137.044L261.26 134.566C261.87 133.445 262.785 132.529 263.904 131.916L266.379 130.561C266.735 130.367 266.955 129.994 266.955 129.589C266.957 129.185 266.735 128.812 266.381 128.618ZM262.844 129.973C261.352 130.79 260.133 132.012 259.317 133.504L258.934 134.206L258.552 133.504C257.737 132.01 256.518 130.79 255.026 129.973L254.325 129.589L255.026 129.205C256.518 128.387 257.737 127.167 258.55 125.674L258.934 124.973L259.316 125.673C260.131 127.165 261.35 128.463 262.842 129.201H262.844L263.545 129.587L262.844 129.973Z" fill="black"/>
<path d="M265.573 67.8932H263.36C262.748 67.8932 262.253 68.3899 262.253 69.0012C262.253 69.6124 262.748 70.1092 263.36 70.1092H265.573C266.186 70.1092 266.68 69.6124 266.68 69.0012C266.68 68.3881 266.186 67.8932 265.573 67.8932Z" fill="black"/>
<path d="M276.639 67.8932H274.426C273.814 67.8932 273.319 68.3899 273.319 69.0012C273.319 69.6124 273.814 70.1092 274.426 70.1092H276.639C277.251 70.1092 277.746 69.6124 277.746 69.0012C277.746 68.3881 277.251 67.8932 276.639 67.8932Z" fill="black"/>
<path d="M270.014 61.1733C269.402 61.1733 268.908 61.6701 268.908 62.2813V64.4973C268.908 65.1085 269.402 65.6053 270.014 65.6053C270.627 65.6053 271.121 65.1085 271.121 64.4973V62.2813C271.121 61.6682 270.627 61.1733 270.014 61.1733Z" fill="black"/>
<path d="M270.014 72.2532C269.402 72.2532 268.908 72.7499 268.908 73.3612V75.5771C268.908 76.1883 269.402 76.6851 270.014 76.6851C270.627 76.6851 271.121 76.1883 271.121 75.5771V73.3612C271.121 72.7481 270.627 72.2532 270.014 72.2532Z" fill="black"/>
<path d="M42.0367 40.1937H39.8234C39.2111 40.1937 38.7168 40.6905 38.7168 41.3017C38.7168 41.9129 39.2111 42.4097 39.8234 42.4097H42.0367C42.649 42.4097 43.1433 41.9129 43.1433 41.3017C43.1433 40.6886 42.649 40.1937 42.0367 40.1937Z" fill="black"/>
<path d="M53.1031 40.1937H50.8898C50.2775 40.1937 49.7832 40.6905 49.7832 41.3017C49.7832 41.9129 50.2775 42.4097 50.8898 42.4097H53.1031C53.7154 42.4097 54.2097 41.9129 54.2097 41.3017C54.2097 40.6886 53.7154 40.1937 53.1031 40.1937Z" fill="black"/>
<path d="M46.4777 33.4739C45.8654 33.4739 45.3711 33.9706 45.3711 34.5819V36.7978C45.3711 37.409 45.8654 37.9058 46.4777 37.9058C47.09 37.9058 47.5843 37.409 47.5843 36.7978V34.5819C47.5843 33.9688 47.09 33.4739 46.4777 33.4739Z" fill="black"/>
<path d="M46.4777 44.5537C45.8654 44.5537 45.3711 45.0505 45.3711 45.6617V47.8776C45.3711 48.4889 45.8654 48.9856 46.4777 48.9856C47.09 48.9856 47.5843 48.4889 47.5843 47.8776V45.6617C47.5843 45.0486 47.09 44.5537 46.4777 44.5537Z" fill="black"/>
<path d="M138.312 19.1422H89.6213C89.0089 19.1422 88.5146 19.639 88.5146 20.2502C88.5146 20.8614 89.0089 21.3582 89.6213 21.3582H138.312C138.925 21.3582 139.419 20.8614 139.419 20.2502C139.419 19.6371 138.925 19.1422 138.312 19.1422Z" fill="black"/>
<path d="M171.511 179.799H160.445C159.832 179.799 159.338 180.296 159.338 180.907C159.338 181.518 159.832 182.015 160.445 182.015H171.511C172.123 182.015 172.617 181.518 172.617 180.907C172.617 180.294 172.123 179.799 171.511 179.799Z" fill="black"/>
<path d="M236.801 187.555H174.831C174.218 187.555 173.724 188.052 173.724 188.663C173.724 189.274 174.218 189.771 174.831 189.771H236.801C237.414 189.771 237.908 189.274 237.908 188.663C237.908 188.052 237.414 187.555 236.801 187.555Z" fill="black"/>
<path d="M226.842 195.311H196.963C196.351 195.311 195.856 195.808 195.856 196.419C195.856 197.03 196.351 197.527 196.963 197.527H226.842C227.454 197.527 227.948 197.03 227.948 196.419C227.948 195.808 227.454 195.311 226.842 195.311Z" fill="black"/>
<path d="M188.11 195.311H168.191C167.579 195.311 167.084 195.808 167.084 196.419C167.084 197.03 167.579 197.527 168.191 197.527H188.11C188.723 197.527 189.217 197.03 189.217 196.419C189.217 195.808 188.723 195.311 188.11 195.311Z" fill="black"/>
<path d="M116.18 11.3864H100.687C100.075 11.3864 99.5806 11.8831 99.5806 12.4943C99.5806 13.1056 100.075 13.6023 100.687 13.6023H116.18C116.792 13.6023 117.286 13.1056 117.286 12.4943C117.286 11.8813 116.792 11.3864 116.18 11.3864Z" fill="black"/>
<path d="M129.459 11.3864H122.82C122.207 11.3864 121.713 11.8831 121.713 12.4943C121.713 13.1056 122.207 13.6023 122.82 13.6023H129.459C130.072 13.6023 130.566 13.1056 130.566 12.4943C130.566 11.8813 130.072 11.3864 129.459 11.3864Z" fill="black"/>
<path fill-rule="evenodd" clip-rule="evenodd" d="M111.602 70.2363H179.558C181.243 70.2363 182.639 71.5101 182.793 73.188L188.86 139.19C189.03 141.037 188.475 142.69 187.225 144.061C185.975 145.431 184.379 146.135 182.524 146.135H108.636C106.781 146.135 105.185 145.431 103.935 144.061C102.685 142.691 102.13 141.037 102.3 139.19L108.366 73.188C108.52 71.5098 109.917 70.2363 111.602 70.2363Z" fill="#FCDD2E"/>
<path fill-rule="evenodd" clip-rule="evenodd" d="M172.089 70.2363H179.558C181.243 70.2363 182.639 71.5101 182.793 73.188L188.86 139.19C189.029 141.037 188.474 142.69 187.224 144.061C185.974 145.431 184.378 146.135 182.523 146.135H108.635C106.781 146.135 105.185 145.431 103.935 144.061C103.31 143.375 102.858 142.619 102.584 141.803H171.693C173.548 141.803 175.144 141.098 176.394 139.728C177.644 138.358 178.199 136.704 178.029 134.858L172.089 70.2363Z" fill="#FBD307"/>
<path d="M201.35 152.889C212.202 142.037 212.202 124.442 201.35 113.59C190.497 102.738 172.903 102.738 162.05 113.59C151.198 124.442 151.198 142.037 162.05 152.889C172.903 163.742 190.497 163.742 201.35 152.889Z" fill="#B9EA6A"/>
<path fill-rule="evenodd" clip-rule="evenodd" d="M181.719 105.448C197.069 105.448 209.512 117.891 209.512 133.24C209.512 148.59 197.069 161.033 181.719 161.033C180.899 161.033 180.088 160.996 179.286 160.926C193.496 159.693 204.646 147.77 204.646 133.241C204.646 118.711 193.496 106.788 179.286 105.555C180.088 105.485 180.899 105.448 181.719 105.448Z" fill="#A1E42C"/>
<path fill-rule="evenodd" clip-rule="evenodd" d="M195.459 124.463C196.576 125.628 196.534 127.475 195.369 128.591L180.46 142.866C179.896 143.406 179.169 143.676 178.441 143.676C177.734 143.676 177.025 143.421 176.466 142.907L168.152 135.271C166.964 134.18 166.884 132.333 167.977 131.145C169.067 129.958 170.913 129.879 172.101 130.97L178.4 136.755L191.332 124.372C192.495 123.258 194.344 123.298 195.459 124.463ZM146.658 41.7312H144.539C134.472 42.283 126.452 50.6451 126.452 60.846V67.6292H108.625C107.116 67.6292 105.856 68.7793 105.717 70.2823L99.3728 139.295C99.1276 141.966 99.9531 144.425 101.761 146.405C103.568 148.386 105.94 149.434 108.622 149.434H155.419C160.799 158.354 170.585 164.332 181.739 164.332C198.673 164.332 212.453 150.554 212.453 133.619C212.453 119.025 202.218 106.775 188.549 103.67L185.48 70.282C185.342 68.7788 184.082 67.6289 182.573 67.6289H164.743V60.8458C164.743 50.6448 156.725 42.283 146.658 41.7312ZM181.739 158.492C195.454 158.492 206.612 147.334 206.612 133.619C206.612 119.904 195.454 108.745 181.739 108.745C168.022 108.745 156.864 119.904 156.864 133.619C156.864 147.334 168.022 158.492 181.739 158.492ZM108.622 143.595H152.689C151.611 140.465 151.025 137.11 151.025 133.62C151.025 116.685 164.804 102.906 181.739 102.906C182.032 102.906 182.325 102.912 182.617 102.92L179.909 73.4687H164.743V78.7925C164.743 80.4057 163.436 81.7127 161.823 81.7127C160.212 81.7127 158.904 80.4057 158.904 78.7925V73.4687H132.291V78.7925C132.291 80.4057 130.986 81.7127 129.372 81.7127C127.761 81.7127 126.452 80.4057 126.452 78.7925V73.4687H111.289L105.188 139.83C105.094 140.864 105.374 141.703 106.075 142.47C106.775 143.237 107.583 143.595 108.622 143.595ZM132.291 60.8458C132.291 53.5098 138.263 47.5408 145.599 47.5408C152.934 47.5408 158.904 53.5098 158.904 60.8458V67.6292H132.291V60.8458Z" fill="black"/>
</svg>
