<svg width="212" height="71" viewBox="0 0 212 71" fill="none" xmlns="http://www.w3.org/2000/svg">
<path d="M80.8385 17.0506V38.6425H76.4355V17.0506H80.8385ZM89.3507 26.2746V29.7447H79.635V26.2746H89.3507ZM90.3781 17.0506V20.5356H79.635V17.0506H90.3781Z" fill="#F54748"/>
<path d="M91.6696 30.7828V30.4714C91.6696 29.2949 91.8359 28.2124 92.1686 27.2237C92.5013 26.2252 92.9856 25.3601 93.6216 24.6285C94.2575 23.8969 95.0403 23.3285 95.9698 22.9231C96.8993 22.5079 97.9658 22.3003 99.1692 22.3003C100.373 22.3003 101.444 22.5079 102.383 22.9231C103.323 23.3285 104.11 23.8969 104.746 24.6285C105.392 25.3601 105.881 26.2252 106.214 27.2237C106.547 28.2124 106.713 29.2949 106.713 30.4714V30.7828C106.713 31.9494 106.547 33.032 106.214 34.0305C105.881 35.0191 105.392 35.8842 104.746 36.6257C104.11 37.3573 103.328 37.9257 102.398 38.3311C101.469 38.7364 100.402 38.9391 99.1986 38.9391C97.9951 38.9391 96.9237 38.7364 95.9845 38.3311C95.055 37.9257 94.2673 37.3573 93.6216 36.6257C92.9856 35.8842 92.5013 35.0191 92.1686 34.0305C91.8359 33.032 91.6696 31.9494 91.6696 30.7828ZM95.8964 30.4714V30.7828C95.8964 31.4551 95.9551 32.0829 96.0725 32.6662C96.1899 33.2495 96.3758 33.7636 96.6302 34.2085C96.8944 34.6435 97.2368 34.9845 97.6576 35.2317C98.0783 35.4789 98.592 35.6024 99.1986 35.6024C99.7856 35.6024 100.29 35.4789 100.71 35.2317C101.131 34.9845 101.469 34.6435 101.723 34.2085C101.977 33.7636 102.163 33.2495 102.281 32.6662C102.408 32.0829 102.471 31.4551 102.471 30.7828V30.4714C102.471 29.8189 102.408 29.2059 102.281 28.6325C102.163 28.0492 101.972 27.5351 101.708 27.0903C101.454 26.6355 101.116 26.2796 100.696 26.0225C100.275 25.7655 99.7661 25.637 99.1692 25.637C98.5724 25.637 98.0636 25.7655 97.6429 26.0225C97.232 26.2796 96.8944 26.6355 96.6302 27.0903C96.3758 27.5351 96.1899 28.0492 96.0725 28.6325C95.9551 29.2059 95.8964 29.8189 95.8964 30.4714Z" fill="#F54748"/>
<path d="M108.635 30.7828V30.4714C108.635 29.2949 108.802 28.2124 109.134 27.2237C109.467 26.2252 109.951 25.3601 110.587 24.6285C111.223 23.8969 112.006 23.3285 112.936 22.9231C113.865 22.5079 114.932 22.3003 116.135 22.3003C117.339 22.3003 118.41 22.5079 119.349 22.9231C120.289 23.3285 121.076 23.8969 121.712 24.6285C122.358 25.3601 122.847 26.2252 123.18 27.2237C123.512 28.2124 123.679 29.2949 123.679 30.4714V30.7828C123.679 31.9494 123.512 33.032 123.18 34.0305C122.847 35.0191 122.358 35.8842 121.712 36.6257C121.076 37.3573 120.293 37.9257 119.364 38.3311C118.434 38.7364 117.368 38.9391 116.164 38.9391C114.961 38.9391 113.89 38.7364 112.95 38.3311C112.021 37.9257 111.233 37.3573 110.587 36.6257C109.951 35.8842 109.467 35.0191 109.134 34.0305C108.802 33.032 108.635 31.9494 108.635 30.7828ZM112.862 30.4714V30.7828C112.862 31.4551 112.921 32.0829 113.038 32.6662C113.156 33.2495 113.342 33.7636 113.596 34.2085C113.86 34.6435 114.203 34.9845 114.623 35.2317C115.044 35.4789 115.558 35.6024 116.164 35.6024C116.752 35.6024 117.255 35.4789 117.676 35.2317C118.097 34.9845 118.434 34.6435 118.689 34.2085C118.943 33.7636 119.129 33.2495 119.246 32.6662C119.374 32.0829 119.437 31.4551 119.437 30.7828V30.4714C119.437 29.8189 119.374 29.2059 119.246 28.6325C119.129 28.0492 118.938 27.5351 118.674 27.0903C118.42 26.6355 118.082 26.2796 117.661 26.0225C117.241 25.7655 116.732 25.637 116.135 25.637C115.538 25.637 115.029 25.7655 114.609 26.0225C114.198 26.2796 113.86 26.6355 113.596 27.0903C113.342 27.5351 113.156 28.0492 113.038 28.6325C112.921 29.2059 112.862 29.8189 112.862 30.4714Z" fill="#F54748"/>
<path d="M135.655 35.1427V15.8643H139.911V38.6425H136.08L135.655 35.1427ZM125.616 30.8125V30.5011C125.616 29.2751 125.753 28.1629 126.027 27.1644C126.301 26.156 126.702 25.2909 127.23 24.5692C127.759 23.8475 128.409 23.2889 129.182 22.8935C129.955 22.498 130.836 22.3003 131.824 22.3003C132.754 22.3003 133.566 22.498 134.26 22.8935C134.965 23.2889 135.562 23.8525 136.051 24.5841C136.55 25.3058 136.951 26.1609 137.254 27.1496C137.558 28.1283 137.778 29.201 137.915 30.3676V31.0498C137.778 32.1669 137.558 33.205 137.254 34.164C136.951 35.1229 136.55 35.9633 136.051 36.685C135.562 37.3968 134.965 37.9505 134.26 38.3459C133.556 38.7414 132.734 38.9391 131.795 38.9391C130.807 38.9391 129.926 38.7364 129.153 38.3311C128.39 37.9257 127.744 37.3573 127.216 36.6257C126.697 35.8941 126.301 35.034 126.027 34.0453C125.753 33.0567 125.616 31.9791 125.616 30.8125ZM129.843 30.5011V30.8125C129.843 31.4749 129.892 32.0928 129.99 32.6662C130.097 33.2396 130.268 33.7487 130.503 34.1936C130.748 34.6286 131.061 34.9697 131.443 35.2169C131.834 35.4541 132.308 35.5728 132.866 35.5728C133.59 35.5728 134.187 35.4097 134.657 35.0834C135.126 34.7473 135.483 34.2875 135.728 33.7042C135.982 33.121 136.129 32.4487 136.168 31.6874V29.7447C136.139 29.1219 136.051 28.5633 135.904 28.069C135.767 27.5648 135.562 27.1347 135.288 26.7788C135.024 26.4229 134.691 26.1461 134.29 25.9484C133.898 25.7506 133.434 25.6518 132.896 25.6518C132.348 25.6518 131.878 25.7803 131.487 26.0374C131.095 26.2845 130.777 26.6256 130.533 27.0606C130.298 27.4956 130.122 28.0097 130.004 28.6029C129.897 29.1862 129.843 29.8189 129.843 30.5011Z" fill="#F54748"/>
<path d="M151.843 29.1664H146.354L146.324 26.1115H150.933C151.745 26.1115 152.41 26.0077 152.929 25.8001C153.447 25.5826 153.834 25.2712 154.088 24.8658C154.352 24.4506 154.484 23.9464 154.484 23.3532C154.484 22.6809 154.357 22.1372 154.103 21.7219C153.858 21.3067 153.472 21.0052 152.943 20.8173C152.425 20.6295 151.755 20.5356 150.933 20.5356H147.88V38.6425H143.477V17.0506H150.933C152.175 17.0506 153.286 17.1693 154.264 17.4065C155.252 17.6438 156.089 18.0047 156.774 18.4891C157.459 18.9735 157.982 19.5865 158.344 20.328C158.706 21.0596 158.887 21.9296 158.887 22.938C158.887 23.8277 158.687 24.6483 158.286 25.3997C157.894 26.151 157.273 26.764 156.422 27.2385C155.58 27.7131 154.48 27.9751 153.12 28.0245L151.843 29.1664ZM151.652 38.6425H145.15L146.867 35.1724H151.652C152.425 35.1724 153.056 35.0488 153.545 34.8016C154.034 34.5446 154.396 34.1986 154.631 33.7636C154.866 33.3286 154.983 32.8293 154.983 32.2658C154.983 31.633 154.876 31.0844 154.661 30.6197C154.455 30.155 154.122 29.7991 153.663 29.552C153.203 29.2949 152.596 29.1664 151.843 29.1664H147.601L147.631 26.1115H152.914L153.927 27.3127C155.228 27.2929 156.275 27.5253 157.067 28.0097C157.87 28.4842 158.452 29.1021 158.814 29.8634C159.186 30.6246 159.372 31.4403 159.372 32.3103C159.372 33.6944 159.073 34.861 158.476 35.81C157.88 36.7493 157.004 37.4561 155.849 37.9307C154.705 38.4052 153.305 38.6425 151.652 38.6425Z" fill="#F54748"/>
<path d="M170.981 35.0241V27.8762C170.981 27.3621 170.897 26.9222 170.731 26.5564C170.565 26.1807 170.306 25.8891 169.953 25.6814C169.611 25.4738 169.166 25.37 168.618 25.37C168.148 25.37 167.742 25.4541 167.4 25.6221C167.057 25.7803 166.793 26.0126 166.607 26.3191C166.421 26.6157 166.328 26.9667 166.328 27.372H162.101C162.101 26.6899 162.258 26.0423 162.571 25.4293C162.884 24.8164 163.339 24.2776 163.936 23.8129C164.533 23.3384 165.242 22.9676 166.064 22.7007C166.896 22.4338 167.825 22.3003 168.853 22.3003C170.085 22.3003 171.181 22.5079 172.14 22.9231C173.099 23.3384 173.852 23.9612 174.4 24.7917C174.958 25.6221 175.237 26.6602 175.237 27.9059V34.772C175.237 35.6519 175.291 36.3736 175.398 36.9371C175.506 37.4907 175.662 37.9752 175.868 38.3904V38.6425H171.597C171.392 38.2075 171.235 37.6637 171.127 37.0112C171.03 36.3489 170.981 35.6865 170.981 35.0241ZM171.538 28.8698L171.568 31.287H169.205C168.647 31.287 168.163 31.3513 167.752 31.4798C167.341 31.6083 167.003 31.7912 166.739 32.0285C166.475 32.2559 166.279 32.5228 166.152 32.8293C166.035 33.1358 165.976 33.4719 165.976 33.8377C165.976 34.2035 166.059 34.5347 166.226 34.8313C166.392 35.118 166.632 35.3454 166.945 35.5135C167.258 35.6716 167.625 35.7507 168.045 35.7507C168.681 35.7507 169.234 35.6222 169.704 35.3652C170.173 35.1081 170.535 34.7918 170.79 34.4161C171.054 34.0404 171.191 33.6845 171.201 33.3483L172.316 35.1575C172.16 35.5629 171.944 35.9831 171.67 36.4181C171.406 36.8531 171.069 37.2633 170.658 37.6489C170.247 38.0246 169.753 38.336 169.175 38.5832C168.598 38.8205 167.913 38.9391 167.121 38.9391C166.113 38.9391 165.198 38.7364 164.376 38.3311C163.564 37.9158 162.918 37.3474 162.439 36.6257C161.969 35.8941 161.735 35.0636 161.735 34.1343C161.735 33.294 161.891 32.5475 162.204 31.895C162.517 31.2425 162.977 30.6938 163.584 30.249C164.2 29.7942 164.968 29.4531 165.888 29.2257C166.808 28.9884 167.874 28.8698 169.087 28.8698H171.538Z" fill="#F54748"/>
<path d="M182.722 26.0967V38.6425H178.495V22.5969H182.472L182.722 26.0967ZM187.506 22.4931L187.433 26.4526C187.227 26.4229 186.978 26.3982 186.684 26.3784C186.401 26.3488 186.141 26.3339 185.907 26.3339C185.31 26.3339 184.791 26.413 184.351 26.5712C183.92 26.7195 183.558 26.942 183.265 27.2385C182.981 27.5351 182.766 27.896 182.619 28.3211C182.482 28.7462 182.404 29.2307 182.384 29.7744L181.533 29.5075C181.533 28.4694 181.636 27.5154 181.841 26.6454C182.047 25.7655 182.345 24.9993 182.736 24.3468C183.138 23.6943 183.627 23.1901 184.204 22.8342C184.781 22.4783 185.442 22.3003 186.185 22.3003C186.42 22.3003 186.66 22.3201 186.905 22.3596C187.149 22.3893 187.35 22.4338 187.506 22.4931Z" fill="#F54748"/>
<path d="M193.964 22.5969V38.6425H189.722V22.5969H193.964ZM189.458 18.4149C189.458 17.7921 189.673 17.278 190.104 16.8727C190.534 16.4673 191.112 16.2647 191.836 16.2647C192.55 16.2647 193.122 16.4673 193.553 16.8727C193.993 17.278 194.213 17.7921 194.213 18.4149C194.213 19.0378 193.993 19.5519 193.553 19.9572C193.122 20.3626 192.55 20.5652 191.836 20.5652C191.112 20.5652 190.534 20.3626 190.104 19.9572C189.673 19.5519 189.458 19.0378 189.458 18.4149Z" fill="#F54748"/>
<path fill-rule="evenodd" clip-rule="evenodd" d="M36.0066 6.05859C35.424 7.68328 34.8415 9.11557 33.3801 10.5936C34.1266 10.9528 34.8676 11.2581 35.5001 11.5176C36.3658 9.89585 36.8801 8.22306 36.7227 6.28603C36.5155 6.2308 36.2732 6.15242 36.0066 6.05859Z" fill="#E6EAED"/>
<path fill-rule="evenodd" clip-rule="evenodd" d="M29.6326 4.79551C30.0804 5.56391 30.7556 6.45108 31.4569 6.99086C30.5418 6.83112 29.635 6.68504 29.0667 6.30678C29.2104 7.35249 29.9438 8.34832 30.9901 9.1672C32.3226 10.2094 34.1575 10.9659 35.5008 11.5181C36.366 9.89641 36.8808 8.22362 36.7234 6.28659C35.0441 5.84241 31.1849 3.85431 29.6326 4.79551ZM46.2987 50.1971C46.2708 50.8241 46.2465 51.2131 46.2465 51.2131C46.2465 51.2131 50.7429 52.0587 51.2191 52.7808C52.5024 54.7261 44.3118 53.9642 43.4668 53.9642C43.2216 53.2719 43.5179 51.5623 43.2073 50.1971H42.9134C42.7305 47.1383 41.1254 41.0683 41.6747 39.8533C39.3428 40.0042 31.4206 40.6099 28.9088 39.9139C26.3975 39.218 25.9961 37.5238 25.9961 37.5238L26.7348 37.1461C26.7348 37.1461 24.9088 36.0683 24.5312 35.2352C22.6262 31.0328 22.2004 17.046 26.4213 12.8869L26.4248 12.2859L25.3245 11.856C24.7342 8.07517 21.8994 3.99504 25.8637 1.06336C29.679 -1.75786 39.2074 1.30267 39.5708 7.08468C38.9782 6.919 38.2394 6.71414 37.3279 6.46176C37.4057 9.48608 36.2905 13.0567 33.3042 14.7722L31.733 14.3595L31.5881 14.3031C31.7086 14.4926 31.8007 14.7016 31.8001 14.9017C31.7989 15.4896 31.3316 15.7515 31.3316 15.7515C31.3316 15.7515 32.8535 17.8203 33.4586 19.6998C35.2353 22.2455 39.547 21.1196 42.5084 22.4717C44.1361 21.2722 47.4401 23.2876 46.5232 25.5554C46.6141 25.7852 46.68 26.0263 46.7186 26.2733C46.8011 26.8018 46.7584 27.3511 46.5392 27.8428C45.9751 29.1094 44.582 29.3998 43.3237 29.3C42.2192 29.2121 42.1402 28.1569 43.0298 27.6902C43.0369 27.5542 42.8956 27.3054 42.8291 27.2169C42.7459 27.107 42.5743 26.9336 42.4223 26.9378C42.2014 26.9431 41.8481 27.091 41.6373 27.1664C41.1895 27.3262 40.7632 27.4455 40.2881 27.4835C40.0933 27.5352 39.8624 27.5684 39.6682 27.6029C39.2377 27.6783 38.8065 27.7478 38.3748 27.8149C37.3333 27.9782 36.2882 28.1284 35.2424 28.2644C35.6522 30.0589 36.0352 31.7768 36.0863 32.1432C36.2027 32.9668 35.9776 34.047 35.9776 34.047C35.9776 34.047 46.5559 33.5422 47.5547 36.0963C48.5066 38.5297 47.3718 44.9958 46.487 50.1977H46.2987V50.1971Z" fill="#F54748"/>
<path fill-rule="evenodd" clip-rule="evenodd" d="M30.8621 52.7358C29.6317 48.3991 25.9203 46.1575 21.5421 47.0084C19.4958 47.4057 17.6122 48.4205 16.044 49.7797C15.0541 50.6372 14.1806 51.639 13.4537 52.7358H13.5327C14.0517 52.1051 14.6224 51.5179 15.2364 50.9852C16.8296 49.6046 18.7435 48.5743 20.8224 48.1699C27.4025 46.8914 29.589 50.6443 30.8621 52.7358ZM32.6032 54.1722C32.3152 51.5992 31.1335 49.047 29.0943 47.3783C27.3936 45.9864 25.1727 45.237 22.6359 45.4164C22.1894 45.4478 21.7333 45.5078 21.269 45.5981C19.0059 46.0375 16.8919 47.1444 15.104 48.6937C13.389 50.18 11.9763 52.0713 11.0203 54.1722H32.6032Z" fill="#F54748"/>
<path fill-rule="evenodd" clip-rule="evenodd" d="M33.3708 52.63C33.4017 52.7648 33.4302 52.9008 33.4569 53.0373C33.5299 53.4132 33.587 53.7962 33.6267 54.1864H49.8273C52.1004 54.1864 53.4389 53.8663 54.0588 53.0611C54.6812 52.2535 54.6574 50.8622 54.199 48.7304L54.193 48.693L53.3783 42.7405L50.9365 50.9085C50.8118 51.3271 50.6266 51.7315 50.3522 52.0439C50.0393 52.4002 49.6295 52.6294 49.0921 52.6294H33.3708V52.63ZM18.0835 61.0747L16.9274 61.3098C17.0432 61.8151 17.3003 62.2671 17.6548 62.6216C17.8935 62.8603 18.1768 63.055 18.4909 63.1922L18.811 62.0349C18.6922 61.9672 18.5841 61.884 18.4879 61.7878C18.2944 61.5943 18.1518 61.3496 18.0835 61.0747ZM19.6394 66.0307C21.4713 65.9351 23.0704 64.96 24.0223 63.5188L22.7415 62.5545C22.5829 62.8246 22.3905 63.0729 22.1702 63.2932C21.5069 63.9571 20.5895 64.3674 19.577 64.3674H19.5396L19.6394 66.0307ZM13.9369 61.9173C14.4494 63.789 15.9078 65.2694 17.7664 65.8133L18.2362 64.115C17.7623 63.9291 17.3371 63.6471 16.9832 63.2932C16.4992 62.8092 16.1501 62.191 15.9969 61.4992L13.9369 61.9173ZM32.929 60.8205C32.125 60.2041 31.4516 59.4357 31.005 58.5391C28.1209 58.5391 25.2486 58.5391 22.3573 58.5391C22.8887 59.0379 23.5366 59.4423 24.2284 59.7552C24.4594 59.8597 24.6957 59.9535 24.9332 60.0379C24.9421 60.1691 24.9469 60.3015 24.9469 60.4345C24.9469 60.9535 24.8762 61.4553 24.7444 61.9321L23.1714 61.428C23.2183 61.1928 23.2438 60.9494 23.2438 60.7006C23.2438 60.5972 23.2403 60.5004 23.2331 60.4108L23.2284 60.3555C22.7783 60.0747 22.3543 59.757 21.9695 59.4007L21.9653 59.4078C22.0396 59.5444 22.1019 59.6887 22.1524 59.8395C22.2444 60.1145 22.2937 60.4042 22.2937 60.7006C22.2937 60.8484 22.2818 60.9939 22.2587 61.1358L21.1132 60.7688C21.1144 60.7463 21.115 60.7237 21.115 60.7006C21.115 60.5254 21.0877 60.3615 21.0378 60.2124C20.9855 60.0557 20.9066 59.9078 20.8074 59.776L20.5716 59.463L21.1322 58.5064H20.1738L19.7997 59.1448L19.485 59.1626C19.0806 59.1857 18.7177 59.3657 18.4559 59.643C18.2314 59.8811 18.0818 60.1922 18.0455 60.5373L16.8817 60.3425C16.9577 59.7635 17.2172 59.2415 17.5996 58.8366C17.7136 58.7154 17.8395 58.6044 17.9743 58.5058H16.6346C16.4155 58.7997 16.2386 59.1281 16.1144 59.4814C16.0355 59.7059 15.9779 59.9417 15.944 60.1857L13.7706 59.8229C13.8199 59.3722 13.9221 58.9375 14.0711 58.5248H12.7493C12.2356 60.6186 12.7433 62.9214 14.3092 64.6298C16.7985 67.3466 21.0194 67.5307 23.7361 65.0414C25.1803 63.7177 25.9083 61.906 25.9006 60.0907C26.0615 62.1204 25.3192 64.2005 23.7017 65.6827C20.9149 68.2367 16.5848 68.0479 14.0301 65.2605C12.3057 63.3781 11.8318 60.7926 12.5646 58.5248H10.3247C10.1953 59.1406 10.1264 59.7789 10.1264 60.4333C10.1264 65.5235 14.2528 69.65 19.3424 69.65C24.3751 69.65 28.4653 65.6156 28.5567 60.6049L32.929 60.8205ZM32.6707 55.1899H7.31109C7.16442 55.1899 7.05575 55.3467 6.99696 55.564C6.95599 55.7131 6.93996 55.8871 6.94768 56.0711C6.95599 56.2588 6.99103 56.4524 7.05278 56.6359C7.2149 57.1175 7.57 57.526 8.12463 57.5224L8.12641 57.5207H31.8554L31.8572 57.5224C32.4118 57.526 32.7675 57.1175 32.929 56.6359C32.9908 56.4524 33.0252 56.2588 33.0335 56.0711C33.0418 55.8877 33.0252 55.7131 32.9842 55.564C32.926 55.3467 32.8174 55.1899 32.6707 55.1899ZM60.8806 50.4198C57.7441 52.5908 56.3931 54.0741 54.5689 57.3164C58.5362 54.3883 64.4311 52.8924 69.3312 53.5908C68.6662 52.624 65.4423 50.342 60.8806 50.4198ZM55.1948 48.5308C55.715 50.956 55.6972 52.5967 54.8617 53.6816C54.0226 54.7707 52.4359 55.2042 49.8273 55.2042H33.9355C33.9456 55.2351 33.9545 55.2659 33.9628 55.2974C34.0317 55.5504 34.0602 55.8307 34.0478 56.1145C34.0353 56.3948 33.9836 56.6834 33.891 56.9577C33.6309 57.7321 33.059 58.4007 32.1547 58.5177C32.6529 59.3069 33.375 59.9648 34.2081 60.4636C35.3262 61.134 36.6837 61.5337 37.9812 61.5337H48.7091C49.2542 61.4868 49.7661 61.3377 50.234 61.0895C50.7091 60.8377 51.1438 60.4808 51.528 60.0236C52.5992 58.7475 53.2198 57.6424 53.8201 56.5747C54.9626 54.5421 56.0345 52.6359 59.7999 49.9364C58.7815 43.6978 55.9644 31.8356 49.1028 30.9235C54.5891 38.5096 54.1319 40.7667 55.1948 48.5308ZM19.4101 62.2302L19.4814 63.4161C19.5129 63.4173 19.5443 63.4179 19.5764 63.4179C20.3264 63.4179 21.0063 63.1132 21.498 62.6216C21.6868 62.4327 21.8484 62.216 21.9754 61.9779L21.0129 61.2534C20.9351 61.4559 20.8151 61.6376 20.6649 61.7878C20.3864 62.0663 20.0016 62.2385 19.5764 62.2385C19.52 62.2391 19.4648 62.2356 19.4101 62.2302ZM43.7591 28.7864L45.8422 27.5364L45.0779 24.7354C45.0779 24.7354 49.2679 23.8096 51.2358 22.9765C53.2031 22.1434 53.7423 21.7556 54.8237 22.3049C56.424 23.1178 56.8717 27.9877 54.9496 29.5993C54.9222 29.6219 54.8949 29.6433 54.8676 29.6641C55.4009 29.0892 55.7702 27.8393 55.7702 26.3897C55.7702 24.3957 55.0707 22.7787 54.2079 22.7787C53.3451 22.7787 52.6455 24.3957 52.6455 26.3897C52.6455 28.3844 53.3451 30.0008 54.2079 30.0008L54.2257 30.0002C52.832 30.4491 51.1129 29.4449 49.7697 29.1837C50.9205 27.6872 50.1741 26.9171 50.1741 26.9171C49.2643 28.8903 46.3523 29.515 43.7591 28.7864ZM42.3927 25.5548C43.3464 25.5548 44.1189 26.328 44.1189 27.2817C44.1189 28.2353 43.3464 29.0079 42.3927 29.0079C41.439 29.0079 40.6659 28.2347 40.6659 27.2817C40.6665 26.328 41.439 25.5548 42.3927 25.5548ZM49.6943 19.9468L49.3392 22.4361L44.5922 22.5133L43.5132 23.5632C44.1011 23.5958 44.6617 23.7942 45.1848 24.1202L45.1949 24.1267C46.3327 23.8714 47.4781 23.5792 48.5963 23.2597C49.3985 23.0305 50.2453 22.7781 51.0137 22.4527L51.1194 22.4076L50.3956 22.4195L51.3338 16.0288C51.0232 14.1702 42.3873 21.9765 49.6943 19.9468ZM9.91261 54.1721C10.9274 51.7701 12.5023 49.6057 14.4399 47.9263C16.3585 46.2636 18.6346 45.0748 21.0782 44.6004C21.5835 44.5024 22.0794 44.4371 22.5645 44.4026C25.3756 44.2043 27.8429 45.0398 29.739 46.5914C31.2794 47.8515 32.4379 49.5831 33.0917 51.6128H39.1623C38.5174 49.1668 36.9539 46.5184 34.9248 44.5315C34.2324 43.8539 33.4872 43.2548 32.7081 42.7702C32.8037 42.7001 32.8963 42.6265 32.9866 42.5499C33.4575 42.1473 34.9818 40.4389 35.2686 39.8837C27.6517 40.0197 29.7491 36.2192 23.6702 36.9639C23.5063 38.0844 22.9837 39.126 22.1726 39.9377C21.3003 40.8094 20.1625 41.348 18.9464 41.4662H8.67509C8.86987 41.7524 9.11868 42.0553 9.40252 42.3462C9.99396 42.9519 10.722 43.4739 11.4173 43.6449L12.2665 43.8539L11.6638 44.4875C10.2261 45.9982 9.26713 47.6977 8.79742 49.3889C8.33305 51.0587 8.34671 52.7185 8.8479 54.1733H9.91261V54.1721Z" fill="#F54748"/>
<path d="M0.511336 24.7227H22.5628C22.5473 22.9103 21.7997 21.2643 20.6032 20.0671C19.3936 18.8575 17.7255 18.1069 15.8912 18.1069H11.5373H7.18348C5.34917 18.1069 3.68114 18.8575 2.47153 20.0671C1.27439 21.2643 0.526775 22.9103 0.511336 24.7227ZM22.5628 25.7405H13.4055V30.5587C13.4055 30.6585 13.3241 30.7398 13.2244 30.7398H9.84972C9.74996 30.7398 9.6686 30.6579 9.6686 30.5587V25.7405H0.510742V36.2006C0.510742 37.3354 0.975108 38.3668 1.72391 39.115C2.47212 39.8632 3.50418 40.3276 4.63837 40.3276H18.4357C19.5699 40.3276 20.602 39.8632 21.3502 39.115C22.0984 38.3668 22.5634 37.3348 22.5634 36.2006V25.7405H22.5628Z" fill="#F54748"/>
<path fill-rule="evenodd" clip-rule="evenodd" d="M20.3104 22.7287C20.0705 22.2174 19.7409 21.7465 19.3324 21.3374C18.4161 20.4211 17.1887 19.9033 15.8912 19.9033H7.18287C5.88537 19.9033 4.65795 20.4211 3.74169 21.3374C3.33314 21.7459 3.00298 22.2174 2.76367 22.7287C2.85096 22.6272 2.943 22.5286 3.03861 22.433C4.03801 21.4336 5.37588 20.8695 6.79095 20.8695H16.2843C17.6988 20.8695 19.0373 21.4342 20.0367 22.433C20.1317 22.5292 20.2231 22.6278 20.3104 22.7287Z" fill="#F54748"/>
<path fill-rule="evenodd" clip-rule="evenodd" d="M2.30713 36.0913V36.2006C2.30713 36.8217 2.55534 37.4066 2.99358 37.8454C3.43241 38.2837 4.01733 38.5319 4.63787 38.5319H18.4352C19.0564 38.5319 19.6413 38.2837 20.0795 37.8449C20.5178 37.4066 20.766 36.8211 20.766 36.2006V36.0913C20.6496 36.3294 20.4934 36.5485 20.3016 36.7404C19.8521 37.1905 19.2517 37.4452 18.6146 37.4452H4.45913C3.82196 37.4452 3.22161 37.1905 2.77209 36.7404C2.57969 36.5485 2.42352 36.3294 2.30713 36.0913Z" fill="#F54748"/>
<path fill-rule="evenodd" clip-rule="evenodd" d="M31.9404 35.7236C29.6827 36.4047 27.3074 36.8922 26.4761 36.9991C28.2385 36.6701 30.0853 36.0098 31.8032 35.1102L31.9404 35.7236ZM34.4606 34.8364C33.8234 35.1054 33.0995 35.3614 32.3519 35.5971L32.1957 34.8994C32.8905 34.5164 33.5609 34.0942 34.1927 33.6399L34.4606 34.8364ZM35.9784 34.0467C35.6743 34.2557 35.2937 34.4611 34.8608 34.6601L34.5698 33.3608C35.1096 32.9505 35.6173 32.5158 36.0829 32.0615C36.2194 32.9499 35.9784 34.0467 35.9784 34.0467Z" fill="#F54748"/>
<path fill-rule="evenodd" clip-rule="evenodd" d="M27.3929 14.9551C27.3929 14.9551 25.3394 15.0762 25.473 18.8072C25.5312 20.442 26.049 22.3244 26.6838 23.9746L30.9736 22.1141C30.7776 19.9283 30.0478 15.1843 27.3929 14.9551Z" fill="#F54748"/>
<path fill-rule="evenodd" clip-rule="evenodd" d="M26.9788 24.6975C27.727 26.473 28.5577 27.8584 28.9752 28.16C29.8166 28.7693 39.6491 27.2177 40.2144 27.0538C41.2239 26.9831 41.8806 26.517 42.4121 26.5033C43.149 26.4843 43.7998 27.7972 43.2654 28.0555C42.7583 28.3008 42.6496 28.8109 43.358 28.8667C45.7357 29.0555 46.5041 27.7046 46.2915 26.3388C46.0469 24.7699 44.4536 23.1886 41.6354 24.0259C40.3569 23.4422 34.1426 24.1821 32.7002 24.134C31.5749 24.0966 31.047 23.1928 31.047 23.1928C31.047 23.1928 31.0446 23.0871 31.0345 22.8994L26.9788 24.6975Z" fill="#F54748"/>
<path d="M10.182 27.4834H12.891C12.9391 27.4834 12.9783 27.5226 12.9783 27.5707V27.8979C12.9783 27.946 12.9391 27.9852 12.891 27.9852H10.182C10.1339 27.9852 10.0947 27.946 10.0947 27.8979V27.5707C10.0947 27.5232 10.1339 27.4834 10.182 27.4834ZM10.182 28.6093H12.891C12.9391 28.6093 12.9783 28.6485 12.9783 28.6966V29.0238C12.9783 29.0719 12.9391 29.1111 12.891 29.1111H10.182C10.1339 29.1111 10.0947 29.0719 10.0947 29.0238V28.6966C10.0947 28.6485 10.1339 28.6093 10.182 28.6093ZM10.182 29.7346H12.891C12.9391 29.7346 12.9783 29.7738 12.9783 29.8219V30.149C12.9783 30.1971 12.9391 30.2363 12.891 30.2363H10.182C10.1339 30.2363 10.0947 30.1971 10.0947 30.149V29.8219C10.0947 29.7743 10.1339 29.7346 10.182 29.7346Z" fill="#F54748"/>
<path fill-rule="evenodd" clip-rule="evenodd" d="M58.734 64.4279C57.6325 64.1179 56.7524 63.2788 56.3848 62.2022L54.3581 62.7367C54.9169 64.5318 56.3593 65.9374 58.1764 66.4451L58.734 64.4279ZM59.3326 62.2622C58.9994 62.1648 58.7251 61.9315 58.5731 61.6257L57.3254 61.9546C57.6022 62.6981 58.2215 63.2753 58.9917 63.4938L59.3326 62.2622ZM62.4934 63.1227C61.9097 63.9249 60.9917 64.4689 59.9442 64.5478L60.0701 66.6357C61.7446 66.5193 63.2155 65.6624 64.1579 64.3905L62.4934 63.1227ZM60.7049 61.7605C60.5071 62.0585 60.1829 62.2652 59.8094 62.3044L59.886 63.5799C60.6431 63.5181 61.3046 63.1197 61.7221 62.5348L60.7049 61.7605ZM62.3557 58.8591C62.8557 59.4612 63.1567 60.2349 63.1567 61.0793C63.1567 61.3982 63.114 61.7064 63.0338 61.9998L65.0207 62.6607C65.1686 62.1595 65.2482 61.6286 65.2482 61.0793C65.2482 59.7052 64.7505 58.4475 63.9257 57.4755L62.3557 58.8591ZM60.668 60.346C60.8201 60.5508 60.9097 60.8044 60.9097 61.0793C60.9097 61.1506 60.9038 61.2195 60.8925 61.2872L62.1116 61.6928C62.1609 61.4962 62.187 61.2907 62.187 61.0793C62.187 60.4808 61.9774 59.9315 61.6277 59.5004L60.668 60.346ZM63.8859 55.7296C65.491 56.9826 66.5231 58.9345 66.5231 61.1286C66.5231 64.9089 63.4584 67.9742 59.6776 67.9742C56.3088 67.9742 53.5084 65.5407 52.9389 62.3359C53.6788 65.2147 56.2916 67.3423 59.4014 67.3423C63.0867 67.3423 66.0736 64.3548 66.0736 60.6702C66.0742 58.7112 65.2298 56.9499 63.8859 55.7296ZM65.44 54.6174C67.2173 56.2035 68.3366 58.5105 68.3366 61.0793C68.3366 65.8614 64.4602 69.7378 59.6782 69.7378C55.1455 69.7378 51.4265 66.2539 51.0518 61.8181C51.5328 61.5134 51.9579 61.131 52.3255 60.6928C52.6046 60.3602 52.8617 60.0277 53.104 59.691L54.7548 58.4725C54.3825 59.1738 54.1562 59.9641 54.1153 60.8032L56.2025 60.954C56.2382 59.9481 56.7008 59.0509 57.4151 58.438L57.6515 59.6007C57.3587 60.0016 57.1817 60.4921 57.1705 61.0241L58.4478 61.1162C58.4472 61.1037 58.4472 61.0912 58.4472 61.0787C58.4472 60.7468 58.5784 60.4457 58.7922 60.2242L58.0155 56.4042C58.3801 56.2213 58.75 56.0509 59.1235 55.8929L59.9329 59.8733C60.0695 59.9018 60.1983 59.9535 60.3141 60.0229L60.9477 58.9137C60.8765 58.8721 60.8034 58.8335 60.728 58.7985L60.5047 57.6993C60.8337 57.7789 61.1437 57.906 61.4287 58.0717L62.4661 56.2546C61.7625 55.8472 60.9614 55.5901 60.1069 55.5248C61.8135 54.9161 63.6253 54.5681 65.44 54.6174Z" fill="#F54748"/>
<path fill-rule="evenodd" clip-rule="evenodd" d="M38.0988 69.2896C59.1401 69.2896 76.1976 69.5621 76.1976 69.8982C76.1976 70.2343 59.1401 70.5069 38.0988 70.5069C17.0568 70.5069 0 70.2343 0 69.8982C0 69.5621 17.0574 69.2896 38.0988 69.2896Z" fill="#F54748"/>
<path d="M119.133 61.8654H116.524L116.54 59.8392H119.133C119.726 59.8392 120.226 59.7052 120.634 59.4371C121.041 59.1638 121.351 58.7617 121.563 58.2311C121.775 57.695 121.881 57.0437 121.881 56.2772V55.7385C121.881 55.1596 121.821 54.6503 121.702 54.2108C121.582 53.7659 121.406 53.3933 121.172 53.0932C120.938 52.793 120.647 52.5679 120.299 52.4178C119.957 52.2677 119.563 52.1926 119.117 52.1926H116.475V50.1584H119.117C119.922 50.1584 120.655 50.2924 121.319 50.5604C121.987 50.8284 122.563 51.2117 123.047 51.7102C123.537 52.2087 123.914 52.7983 124.181 53.4791C124.447 54.1599 124.58 54.9184 124.58 55.7546V56.2772C124.58 57.1081 124.447 57.8666 124.181 58.5527C123.914 59.2334 123.537 59.8231 123.047 60.3216C122.563 60.8147 121.99 61.1953 121.327 61.4634C120.664 61.7314 119.932 61.8654 119.133 61.8654ZM118.032 50.1584V61.8654H115.374V50.1584H118.032Z" fill="#F54748"/>
<path d="M130.231 62.0262C129.53 62.0262 128.902 61.9163 128.347 61.6965C127.793 61.4768 127.323 61.1739 126.937 60.7879C126.556 60.3966 126.265 59.9464 126.064 59.4371C125.863 58.9279 125.763 58.3838 125.763 57.8049V57.4994C125.763 56.8508 125.855 56.2531 126.04 55.7063C126.225 55.1596 126.494 54.6852 126.847 54.2832C127.206 53.8758 127.646 53.5622 128.168 53.3424C128.69 53.1173 129.285 53.0047 129.954 53.0047C130.579 53.0047 131.136 53.1066 131.625 53.3103C132.115 53.5086 132.528 53.7954 132.865 54.1706C133.202 54.5405 133.457 54.9881 133.631 55.5134C133.811 56.0333 133.9 56.6176 133.9 57.2662V58.2954H126.79V56.6792H131.405V56.4863C131.405 56.1807 131.348 55.9127 131.234 55.6822C131.125 55.4517 130.962 55.2748 130.745 55.1515C130.533 55.0229 130.264 54.9586 129.937 54.9586C129.628 54.9586 129.369 55.0229 129.163 55.1515C128.956 55.2802 128.79 55.4624 128.665 55.6983C128.546 55.9288 128.459 56.1995 128.404 56.5104C128.35 56.8159 128.323 57.1456 128.323 57.4994V57.8049C128.323 58.1426 128.369 58.4508 128.462 58.7296C128.554 59.0083 128.69 59.2468 128.869 59.4452C129.049 59.6435 129.266 59.799 129.522 59.9115C129.777 60.0241 130.068 60.0804 130.394 60.0804C130.796 60.0804 131.18 60.0053 131.544 59.8552C131.908 59.6998 132.223 59.4586 132.49 59.1316L133.68 60.4744C133.501 60.7317 133.248 60.9809 132.922 61.2221C132.601 61.458 132.215 61.651 131.764 61.8011C131.313 61.9511 130.802 62.0262 130.231 62.0262Z" fill="#F54748"/>
<path d="M137.822 49.5151V61.8654H135.27V49.5151H137.822Z" fill="#F54748"/>
<path d="M142.34 53.1655V61.8654H139.788V53.1655H142.34ZM139.633 50.9142C139.633 50.5497 139.763 50.2522 140.024 50.0217C140.285 49.7858 140.627 49.6679 141.051 49.6679C141.475 49.6679 141.818 49.7858 142.079 50.0217C142.345 50.2522 142.478 50.5497 142.478 50.9142C142.478 51.2733 142.345 51.5708 142.079 51.8067C141.818 52.0372 141.475 52.1524 141.051 52.1524C140.627 52.1524 140.285 52.0372 140.024 51.8067C139.763 51.5708 139.633 51.2733 139.633 50.9142Z" fill="#F54748"/>
<path d="M147.265 60.0884L149.108 53.1655H151.782L148.855 61.8654H147.249L147.265 60.0884ZM146.074 53.1655L147.909 60.0965L147.925 61.8654H146.319L143.392 53.1655H146.074Z" fill="#F54748"/>
<path d="M156.764 62.0262C156.063 62.0262 155.435 61.9163 154.881 61.6965C154.326 61.4768 153.856 61.1739 153.47 60.7879C153.09 60.3966 152.799 59.9464 152.598 59.4371C152.397 58.9279 152.296 58.3838 152.296 57.8049V57.4994C152.296 56.8508 152.388 56.2531 152.573 55.7063C152.758 55.1596 153.027 54.6852 153.38 54.2832C153.739 53.8758 154.18 53.5622 154.701 53.3424C155.223 53.1173 155.819 53.0047 156.487 53.0047C157.112 53.0047 157.669 53.1066 158.159 53.3103C158.648 53.5086 159.061 53.7954 159.398 54.1706C159.735 54.5405 159.991 54.9881 160.165 55.5134C160.344 56.0333 160.434 56.6176 160.434 57.2662V58.2954H153.323V56.6792H157.939V56.4863C157.939 56.1807 157.881 55.9127 157.767 55.6822C157.659 55.4517 157.496 55.2748 157.278 55.1515C157.066 55.0229 156.797 54.9586 156.471 54.9586C156.161 54.9586 155.903 55.0229 155.696 55.1515C155.49 55.2802 155.324 55.4624 155.199 55.6983C155.079 55.9288 154.992 56.1995 154.938 56.5104C154.884 56.8159 154.856 57.1456 154.856 57.4994V57.8049C154.856 58.1426 154.903 58.4508 154.995 58.7296C155.087 59.0083 155.223 59.2468 155.403 59.4452C155.582 59.6435 155.799 59.799 156.055 59.9115C156.31 60.0241 156.601 60.0804 156.927 60.0804C157.33 60.0804 157.713 60.0053 158.077 59.8552C158.441 59.6998 158.757 59.4586 159.023 59.1316L160.214 60.4744C160.034 60.7317 159.781 60.9809 159.455 61.2221C159.135 61.458 158.749 61.651 158.297 61.8011C157.846 61.9511 157.335 62.0262 156.764 62.0262Z" fill="#F54748"/>
<path d="M164.225 55.1917V61.8654H161.681V53.1655H164.07L164.225 55.1917ZM166.859 53.1012L166.818 55.441C166.71 55.4249 166.568 55.4115 166.394 55.4008C166.22 55.3847 166.071 55.3767 165.946 55.3767C165.62 55.3767 165.337 55.4169 165.098 55.4973C164.864 55.5723 164.668 55.6849 164.511 55.835C164.359 55.9851 164.244 56.1727 164.168 56.3978C164.092 56.6176 164.054 56.8722 164.054 57.1617L163.573 56.9285C163.573 56.3549 163.63 55.8296 163.744 55.3526C163.858 54.8755 164.024 54.4627 164.242 54.1143C164.459 53.7605 164.725 53.4872 165.041 53.2942C165.356 53.1012 165.715 53.0047 166.117 53.0047C166.248 53.0047 166.381 53.0128 166.517 53.0288C166.653 53.0449 166.767 53.069 166.859 53.1012Z" fill="#F54748"/>
<path d="M170.708 60.8603L173.015 53.1655H175.755L172.208 63.1679C172.132 63.3877 172.029 63.6236 171.898 63.8755C171.773 64.1274 171.602 64.3687 171.385 64.5992C171.173 64.8296 170.901 65.0173 170.569 65.162C170.238 65.3067 169.83 65.3791 169.346 65.3791C169.102 65.3791 168.911 65.3657 168.775 65.3389C168.645 65.3174 168.471 65.2799 168.253 65.2263L168.245 63.4011C168.316 63.4011 168.379 63.4011 168.433 63.4011C168.493 63.4065 168.552 63.4092 168.612 63.4092C168.917 63.4092 169.161 63.377 169.346 63.3127C169.536 63.2483 169.683 63.1519 169.786 63.0232C169.895 62.8999 169.982 62.7418 170.047 62.5488L170.708 60.8603ZM169.933 53.1655L171.76 59.3567L172.07 62.0181L170.349 62.1066L167.193 53.1655H169.933Z" fill="#F54748"/>
<path d="M182.14 50.1584H184.341L187.195 58.5286L190.041 50.1584H192.243L188.084 61.8654H186.298L182.14 50.1584ZM180.868 50.1584H183.11L183.526 58.8341V61.8654H180.868V50.1584ZM191.272 50.1584H193.523V61.8654H190.857V58.8341L191.272 50.1584Z" fill="#F54748"/>
<path d="M200.038 59.7909V56.0601C200.038 55.7975 199.997 55.5723 199.916 55.3847C199.834 55.1971 199.706 55.0497 199.533 54.9425C199.359 54.8353 199.133 54.7817 198.856 54.7817C198.622 54.7817 198.418 54.8219 198.244 54.9023C198.076 54.9827 197.945 55.0979 197.853 55.248C197.766 55.3981 197.722 55.583 197.722 55.8028H195.178C195.178 55.4115 195.268 55.047 195.447 54.7093C195.627 54.3716 195.882 54.0741 196.214 53.8168C196.551 53.5595 196.953 53.3612 197.421 53.2218C197.888 53.0771 198.413 53.0047 198.994 53.0047C199.685 53.0047 200.299 53.12 200.837 53.3505C201.381 53.5756 201.81 53.916 202.126 54.3716C202.441 54.8219 202.598 55.3901 202.598 56.0762V59.7186C202.598 60.2439 202.628 60.6566 202.688 60.9568C202.753 61.2516 202.846 61.5089 202.965 61.7287V61.8654H200.397C200.277 61.6134 200.188 61.3025 200.128 60.9327C200.068 60.5575 200.038 60.1769 200.038 59.7909ZM200.356 56.5586L200.372 57.9416H199.109C198.826 57.9416 198.581 57.9764 198.375 58.0461C198.174 58.1158 198.01 58.2123 197.885 58.3356C197.76 58.4535 197.668 58.5929 197.608 58.7537C197.554 58.9091 197.527 59.0807 197.527 59.2683C197.527 59.4452 197.57 59.606 197.657 59.7507C197.744 59.8901 197.864 60 198.016 60.0804C198.168 60.1608 198.345 60.201 198.546 60.201C198.877 60.201 199.16 60.1367 199.394 60.008C199.633 59.8794 199.818 59.7239 199.948 59.5417C200.079 59.3541 200.144 59.1798 200.144 59.019L200.756 60.0643C200.658 60.2787 200.538 60.5012 200.397 60.7317C200.256 60.9568 200.076 61.1685 199.859 61.3669C199.641 61.5598 199.378 61.718 199.068 61.8413C198.763 61.9645 198.396 62.0262 197.967 62.0262C197.412 62.0262 196.91 61.9163 196.458 61.6965C196.007 61.4714 195.646 61.1632 195.374 60.7719C195.108 60.3806 194.974 59.9303 194.974 59.4211C194.974 58.9654 195.059 58.5607 195.227 58.2069C195.396 57.8532 195.648 57.553 195.986 57.3064C196.328 57.0598 196.757 56.8749 197.274 56.7516C197.79 56.623 198.394 56.5586 199.084 56.5586H200.356Z" fill="#F54748"/>
<path d="M206.765 55.0229V61.8654H204.213V53.1655H206.61L206.765 55.0229ZM206.431 57.2099L205.795 57.226C205.795 56.572 205.876 55.9851 206.039 55.4651C206.203 54.9452 206.434 54.5029 206.733 54.1384C207.037 53.7686 207.399 53.4872 207.817 53.2942C208.241 53.1012 208.709 53.0047 209.22 53.0047C209.633 53.0047 210.011 53.0637 210.353 53.1816C210.695 53.2995 210.989 53.4898 211.234 53.7525C211.484 54.0098 211.674 54.3528 211.804 54.7817C211.935 55.2051 212 55.7278 212 56.3496V61.8654H209.44V56.3415C209.44 55.977 209.388 55.6956 209.285 55.4973C209.182 55.299 209.029 55.1596 208.828 55.0792C208.632 54.9988 208.393 54.9586 208.111 54.9586C207.812 54.9586 207.556 55.0175 207.344 55.1355C207.132 55.248 206.958 55.4062 206.822 55.6099C206.686 55.8135 206.586 56.0521 206.521 56.3255C206.461 56.5988 206.431 56.8937 206.431 57.2099Z" fill="#F54748"/>
<path fill-rule="evenodd" clip-rule="evenodd" d="M85.0884 56.2451C85.0884 55.7141 85.5891 55.2837 86.2068 55.2837L111.371 55.2837C111.989 55.2837 112.49 55.7141 112.49 56.2451C112.49 56.7761 111.989 57.2066 111.371 57.2066L86.2068 57.2066C85.5891 57.2066 85.0884 56.7761 85.0884 56.2451Z" fill="#F54748"/>
</svg>
